<svg width="14" height="14" viewBox="0 0 14 14" fill="none" xmlns="http://www.w3.org/2000/svg">
<g clip-path="url(#clip0_321_683)">
<path fill-rule="evenodd" clip-rule="evenodd" d="M7.29289 1.29289C7.68342 0.902369 8.31658 0.902369 8.70711 1.29289L13.7071 6.29289C13.8946 6.48043 14 6.73478 14 7C14 7.26521 13.8946 7.51957 13.7071 7.70711L8.70711 12.7071C8.31658 13.0976 7.68342 13.0976 7.29289 12.7071C6.90237 12.3166 6.90237 11.6834 7.29289 11.2929L10.5858 8H1C0.447715 8 0 7.55228 0 7C0 6.44771 0.447715 6 1 6H10.5858L7.29289 2.70711C6.90237 2.31658 6.90237 1.68342 7.29289 1.29289Z" fill="white"/>
</g>
<defs>
<clipPath id="clip0_321_683">
<rect width="14" height="14" fill="white"/>
</clipPath>
</defs>
</svg>
