<svg width="40" height="40" viewBox="0 0 40 40" fill="none" xmlns="http://www.w3.org/2000/svg">
<path d="M6.10573 4.42719C6.25334 3.68915 6.90136 3.1579 7.65401 3.1579H14.9599C15.9563 3.1579 16.7036 4.06946 16.5082 5.0465L15.0345 12.4149C14.8869 13.153 14.2389 13.6842 13.4862 13.6842H6.18033C5.18394 13.6842 4.43664 12.7726 4.63205 11.7956L6.10573 4.42719Z" fill="#4392C7"/>
<path d="M17.6847 4.42719C17.8323 3.68915 18.4803 3.1579 19.233 3.1579H26.5388C27.5352 3.1579 28.2825 4.06946 28.0871 5.0465L26.6134 12.4149C26.4658 13.153 25.8178 13.6842 25.0652 13.6842H17.7593C16.7629 13.6842 16.0156 12.7726 16.211 11.7956L17.6847 4.42719Z" fill="#4392C7"/>
<path d="M17.1277 14.7368C16.375 14.7368 15.727 15.2681 15.5794 16.0061L14.1057 23.3746C13.9103 24.3516 14.6576 25.2632 15.654 25.2632H22.9599C23.7126 25.2632 24.3606 24.7319 24.5082 23.9939L25.9819 16.6255C26.1773 15.6484 25.43 14.7368 24.4336 14.7368H17.1277Z" fill="#4392C7"/>
<path d="M29.2636 4.42719C29.4112 3.68915 30.0593 3.1579 30.8119 3.1579H38.1178C39.1142 3.1579 39.8615 4.06946 39.6661 5.0465L38.1924 12.4149C38.0448 13.153 37.3968 13.6842 36.6441 13.6842H29.3382C28.3418 13.6842 27.5945 12.7726 27.7899 11.7956L29.2636 4.42719Z" fill="#4392C7"/>
<path d="M28.7066 14.7368C27.954 14.7368 27.306 15.2681 27.1584 16.0061L25.6847 23.3746C25.4893 24.3516 26.2366 25.2632 27.233 25.2632H34.5388C35.2915 25.2632 35.9395 24.7319 36.0871 23.9939L37.5608 16.6255C37.7562 15.6484 37.0089 14.7368 36.0125 14.7368H28.7066Z" fill="#4392C7"/>
<path d="M4.00047 16.0061C4.14807 15.2681 4.7961 14.7368 5.54875 14.7368H12.8546C13.851 14.7368 14.5983 15.6484 14.4029 16.6255L12.9292 23.9939C12.7816 24.7319 12.1336 25.2632 11.3809 25.2632H4.07507C3.07868 25.2632 2.33137 24.3516 2.52678 23.3746L4.00047 16.0061Z" fill="#4392C7"/>
<path d="M15.0224 26.3158C14.2698 26.3158 13.6218 26.847 13.4742 27.5851L12.0005 34.9535C11.8051 35.9305 12.5524 36.8421 13.5488 36.8421H20.8546C21.6073 36.8421 22.2553 36.3109 22.4029 35.5728L23.8766 28.2044C24.072 27.2274 23.3247 26.3158 22.3283 26.3158H15.0224Z" fill="#4392C7"/>
<path d="M25.0531 27.5851C25.2007 26.847 25.8487 26.3158 26.6014 26.3158H33.9073C34.9037 26.3158 35.651 27.2274 35.4556 28.2044L33.9819 35.5728C33.8343 36.3109 33.1862 36.8421 32.4336 36.8421H25.1277C24.1313 36.8421 23.384 35.9305 23.5794 34.9535L25.0531 27.5851Z" fill="#4392C7"/>
<path d="M3.44349 26.3158C2.69083 26.3158 2.04281 26.847 1.8952 27.5851L0.421518 34.9535C0.22611 35.9305 0.973415 36.8421 1.9698 36.8421H9.27569C10.0283 36.8421 10.6764 36.3109 10.824 35.5728L12.2977 28.2044C12.4931 27.2274 11.7458 26.3158 10.7494 26.3158H3.44349Z" fill="#4392C7"/>
</svg>
