<svg width="24" height="24" viewBox="0 0 24 24" fill="none" xmlns="http://www.w3.org/2000/svg">
<g clip-path="url(#clip0_180_95)">
<path d="M13.5113 10.5112L21.7062 10.5257C22.5346 10.5267 23.2054 11.199 23.2045 12.0275C23.2035 12.8559 22.5312 13.5267 21.7027 13.5257L13.513 13.5112L13.5175 21.706C13.5178 22.5344 12.8465 23.2063 12.0181 23.2066C11.1896 23.2069 10.5178 22.5355 10.5175 21.7071L10.513 13.5058L2.3187 13.4913C1.49028 13.4903 0.819475 12.818 0.820436 11.9895C0.821397 11.1611 1.49375 10.4903 2.32217 10.4913L10.5113 10.5058L10.5067 2.31768C10.5064 1.48926 11.1777 0.817443 12.0062 0.817139C12.8346 0.816834 13.5064 1.48815 13.5067 2.3166L13.5113 10.5112Z" fill="#382006"/>
</g>
<defs>
<clipPath id="clip0_180_95">
<rect width="24" height="24" fill="white"/>
</clipPath>
</defs>
</svg>
