<svg width="159" height="147" viewBox="0 0 159 147" fill="none" xmlns="http://www.w3.org/2000/svg">
<path d="M16.5 13.5H17.5C18.6046 13.5 19.5 14.3954 19.5 15.5V49.2007C19.5 49.7138 19.3028 50.2073 18.9491 50.5791L3.21363 67.1216C2.00212 68.3952 2.90494 70.5 4.66274 70.5H17.5C18.6046 70.5 19.5 71.3954 19.5 72.5V152C19.5 153.105 18.6046 154 17.5 154H17C15.8954 154 15 154.895 15 156V163.5C15 164.605 15.8954 165.5 17 165.5H141.5C142.605 165.5 143.5 164.605 143.5 163.5V156C143.5 154.895 142.605 154 141.5 154H140.5C139.395 154 138.5 153.105 138.5 152V72.5C138.5 71.3954 139.395 70.5 140.5 70.5H153.064C154.924 70.5 155.776 68.1824 154.36 66.9768L79.248 3.06199C78.5223 2.44441 77.4616 2.42468 76.7133 3.01483L45.7386 27.4456C44.4269 28.4802 42.5 27.5459 42.5 25.8753V15.5C42.5 14.3954 43.3954 13.5 44.5 13.5H46C47.1046 13.5 48 12.6046 48 11.5V4C48 2.89543 47.1046 2 46 2H16.5C15.3954 2 14.5 2.89543 14.5 4V11.5C14.5 12.6046 15.3954 13.5 16.5 13.5Z" stroke="#6685A3" stroke-width="2"/>
<path d="M75.9519 45.6223L56.9054 84.6223C56.2565 85.951 57.2239 87.5 58.7025 87.5H66.2758C67.6262 87.5 68.5885 88.8107 68.184 90.0991L58.7572 120.125C58.0919 122.244 60.8598 123.707 62.2355 121.963L95.9446 79.2388C96.9795 77.9272 96.0452 76 94.3745 76H84.7591C83.2668 76 82.3001 74.4248 82.9759 73.0943L96.0241 47.4057C96.6999 46.0752 95.7332 44.5 94.2409 44.5H77.749C76.9847 44.5 76.2873 44.9356 75.9519 45.6223Z" stroke="#6685A3" stroke-width="2"/>
</svg>
