<svg width="138" height="40" viewBox="0 0 138 40" fill="none" xmlns="http://www.w3.org/2000/svg">
<path fill-rule="evenodd" clip-rule="evenodd" d="M30.095 20.7951H37.0789C37.0051 19.4038 36.6723 16.4748 33.7163 16.4748C30.4644 16.4748 30.095 19.4409 30.095 20.7951ZM33.4578 11.8621C39.296 11.8621 43.915 15.3402 43.915 23.5409V25.2982H30.095C30.095 26.7629 30.095 30.0579 33.5683 30.0579C35.8223 30.0579 36.5986 28.4107 37.0789 27.3854L42.9542 29.289C40.9588 33.4624 38.0028 34.9635 33.4578 34.9635C24.6259 34.9635 23.0002 27.4952 23.0002 23.5044C23.0002 17.0973 26.5844 11.8621 33.4578 11.8621Z" fill="#27A737"/>
<path fill-rule="evenodd" clip-rule="evenodd" d="M67.9658 28.1542C67.0421 28.9964 66.1919 29.8385 64.6773 29.8385C61.5731 29.8385 61.3514 25.7008 61.3514 23.6876C61.3514 20.9417 61.4991 16.9877 64.751 16.9877C66.1553 16.9877 67.005 17.7563 67.9658 18.7816V28.1542ZM74.9132 6.00415H67.9658V14.6076C66.1919 13.1068 64.751 11.8618 62.0165 11.8618C55.4757 11.8618 54.2566 18.1594 54.2566 23.1016C54.2566 28.6666 55.4757 34.9636 61.8319 34.9636C63.5685 34.9636 65.5267 34.5613 67.9658 32.1079V34.4515H74.9132V6.00415Z" fill="#00497A"/>
<mask id="mask0_128_170" style="mask-type:luminance" maskUnits="userSpaceOnUse" x="23" y="6" width="92" height="29">
<path d="M23 34.9639H114.566V6H23V34.9639Z" fill="white"/>
</mask>
<g mask="url(#mask0_128_170)">
<path fill-rule="evenodd" clip-rule="evenodd" d="M83.225 10.494H90.1541V6.00031H83.225V10.494Z" fill="#00497A"/>
</g>
<mask id="mask1_128_170" style="mask-type:luminance" maskUnits="userSpaceOnUse" x="23" y="6" width="92" height="29">
<path d="M23 34.9639H114.566V6H23V34.9639Z" fill="white"/>
</mask>
<g mask="url(#mask1_128_170)">
<path fill-rule="evenodd" clip-rule="evenodd" d="M77.8964 34.4787H95.4825V30.0269L90.1851 29.3459L90.154 12.3571H78.3946V16.4127L83.2264 16.8069V29.3465L77.8979 30.0269L77.8964 34.4787Z" fill="#00497A"/>
</g>
<mask id="mask2_128_170" style="mask-type:luminance" maskUnits="userSpaceOnUse" x="23" y="6" width="92" height="29">
<path d="M23 34.9639H114.566V6H23V34.9639Z" fill="white"/>
</mask>
<g mask="url(#mask2_128_170)">
<path fill-rule="evenodd" clip-rule="evenodd" d="M114.073 17.1144C113.371 15.2837 112.041 11.8421 105.241 11.8421C103.763 11.8421 96.1885 11.8421 96.1885 18.945C96.1885 22.6793 98.5164 24.29 101.066 25.0588L105.057 26.1575C106.868 26.6695 107.385 26.9263 107.385 28.244C107.385 29.2687 106.461 30.1848 104.872 30.1848C103.246 30.1848 101.879 29.1215 101.332 27.6862L95.8469 30.0025C96.4749 31.3573 97.5927 34.9438 104.909 34.9438C108.641 34.9438 114.332 33.9188 114.332 27.5482C114.332 24.1072 112.41 21.947 108.937 20.995L106.572 20.336C104.503 19.7869 102.914 19.4939 102.914 18.2495C102.914 17.2242 103.542 16.4548 105.278 16.4548C107.348 16.4548 107.755 17.4436 108.383 18.9082L114.073 17.1144Z" fill="#00497A"/>
</g>
<mask id="mask3_128_170" style="mask-type:luminance" maskUnits="userSpaceOnUse" x="23" y="6" width="92" height="29">
<path d="M23 34.9639H114.566V6H23V34.9639Z" fill="white"/>
</mask>
<g mask="url(#mask3_128_170)">
<path fill-rule="evenodd" clip-rule="evenodd" d="M45.1195 34.4512H52.4678V27.4691H45.1195V34.4512Z" fill="#27A737"/>
</g>
</svg>
