<svg width="138" height="40" viewBox="0 0 138 40" fill="none" xmlns="http://www.w3.org/2000/svg">
<g clip-path="url(#clip0_269_5)">
<path d="M0 0H46V40H0V0Z" fill="#FFDD00"/>
<path d="M40.8528 20.5442C40.9919 27.619 32.2278 32.8345 21.8407 32.8345C14.5141 32.8345 8.16129 30.068 5.00806 25.9864C4.91532 25.8957 4.82258 25.7596 4.72984 25.6236C4.49798 25.3061 4.63709 25.2608 4.91532 25.4875C5.00806 25.5782 5.1008 25.6236 5.19355 25.7143C8.11492 27.8458 13.123 29.161 18.7802 28.9796C26.246 28.7075 32.4133 26.1678 33.9899 22.585C34.0363 22.449 33.9435 22.4036 33.9435 22.4036L30.9758 23.2653C30.9758 23.2653 30.6512 23.4013 30.8831 23.1292C31.7177 22.1769 34.5464 18.9569 35.8448 17.4603C36.0302 17.2789 36.0302 17.2335 36.3085 17.3243C38.5806 17.9592 41.502 18.8662 43.6351 19.5465C43.9597 19.6372 43.6814 19.6825 43.6814 19.6825L40.8992 20.4082C40.9919 20.4082 40.8528 20.4535 40.8528 20.5442Z" fill="#E1001A"/>
<path d="M2.82863 19.3197C3.38508 12.6077 11.6855 7.30157 21.8407 7.30157C29.0282 7.30157 34.871 9.88661 38.3488 13.6961C38.627 14.0136 38.8125 14.3764 38.5343 14.4671L38.2097 14.5578L8.625 23.0839C7.92944 23.2653 7.83669 22.9025 8.53226 22.585C11.7319 21.1338 20.7742 17.0975 27.2661 14.2404C27.4516 14.195 27.498 14.0589 27.3125 14.0136C24.7157 13.1973 21.5625 12.7891 18.2238 12.9252C10.8508 13.1519 4.72984 15.873 3.06048 19.4104C2.96774 19.5918 2.82863 19.5918 2.82863 19.3197Z" fill="#E1001A"/>
</g>
<path d="M79.5117 31C79.4317 31 79.3637 30.976 79.3077 30.928C79.2597 30.872 79.2357 30.804 79.2357 30.724V25.036C79.2357 24.956 79.2597 24.892 79.3077 24.844C79.3637 24.788 79.4317 24.76 79.5117 24.76H80.0757C80.1557 24.76 80.2197 24.788 80.2677 24.844C80.3237 24.892 80.3517 24.956 80.3517 25.036V25.564C80.5597 25.292 80.8197 25.072 81.1317 24.904C81.4517 24.728 81.8597 24.64 82.3557 24.64C82.8757 24.64 83.3157 24.756 83.6757 24.988C84.0437 25.212 84.3197 25.528 84.5037 25.936C84.6877 26.336 84.7797 26.804 84.7797 27.34V30.724C84.7797 30.804 84.7557 30.872 84.7077 30.928C84.6597 30.976 84.5957 31 84.5157 31H83.9157C83.8357 31 83.7677 30.976 83.7117 30.928C83.6637 30.872 83.6397 30.804 83.6397 30.724V27.4C83.6397 26.84 83.5037 26.404 83.2317 26.092C82.9597 25.772 82.5597 25.612 82.0317 25.612C81.5357 25.612 81.1357 25.772 80.8317 26.092C80.5357 26.404 80.3877 26.84 80.3877 27.4V30.724C80.3877 30.804 80.3597 30.872 80.3037 30.928C80.2557 30.976 80.1917 31 80.1117 31H79.5117Z" fill="black"/>
<path d="M76.4882 31C76.4082 31 76.3402 30.976 76.2842 30.928C76.2362 30.872 76.2122 30.804 76.2122 30.724V25.036C76.2122 24.956 76.2362 24.892 76.2842 24.844C76.3402 24.788 76.4082 24.76 76.4882 24.76H77.0642C77.1442 24.76 77.2082 24.788 77.2562 24.844C77.3042 24.892 77.3282 24.956 77.3282 25.036V30.724C77.3282 30.804 77.3042 30.872 77.2562 30.928C77.2082 30.976 77.1442 31 77.0642 31H76.4882ZM76.3922 23.596C76.3122 23.596 76.2442 23.572 76.1882 23.524C76.1402 23.468 76.1162 23.4 76.1162 23.32V22.672C76.1162 22.592 76.1402 22.528 76.1882 22.48C76.2442 22.424 76.3122 22.396 76.3922 22.396H77.1482C77.2282 22.396 77.2922 22.424 77.3402 22.48C77.3962 22.528 77.4242 22.592 77.4242 22.672V23.32C77.4242 23.4 77.3962 23.468 77.3402 23.524C77.2922 23.572 77.2282 23.596 77.1482 23.596H76.3922Z" fill="black"/>
<path d="M73.4651 31C73.3851 31 73.3171 30.976 73.2611 30.928C73.2131 30.872 73.1891 30.804 73.1891 30.724V22.756C73.1891 22.676 73.2131 22.612 73.2611 22.564C73.3171 22.508 73.3851 22.48 73.4651 22.48H74.0291C74.1171 22.48 74.1851 22.508 74.2331 22.564C74.2811 22.612 74.3051 22.676 74.3051 22.756V30.724C74.3051 30.804 74.2811 30.872 74.2331 30.928C74.1851 30.976 74.1171 31 74.0291 31H73.4651Z" fill="black"/>
<path d="M68.8945 31C68.8145 31 68.7465 30.976 68.6905 30.928C68.6425 30.872 68.6185 30.804 68.6185 30.724V25.048C68.6185 24.968 68.6425 24.9 68.6905 24.844C68.7465 24.788 68.8145 24.76 68.8945 24.76H69.4465C69.5265 24.76 69.5945 24.788 69.6505 24.844C69.7065 24.9 69.7345 24.968 69.7345 25.048V25.576C69.8945 25.304 70.1145 25.1 70.3945 24.964C70.6745 24.828 71.0105 24.76 71.4025 24.76H71.8825C71.9625 24.76 72.0265 24.788 72.0745 24.844C72.1225 24.892 72.1465 24.956 72.1465 25.036V25.528C72.1465 25.608 72.1225 25.672 72.0745 25.72C72.0265 25.768 71.9625 25.792 71.8825 25.792H71.1625C70.7305 25.792 70.3905 25.92 70.1425 26.176C69.8945 26.424 69.7705 26.764 69.7705 27.196V30.724C69.7705 30.804 69.7425 30.872 69.6865 30.928C69.6305 30.976 69.5625 31 69.4825 31H68.8945Z" fill="black"/>
<path d="M64.3876 31.12C63.5636 31.12 62.9076 30.868 62.4196 30.364C61.9316 29.852 61.6636 29.156 61.6156 28.276C61.6076 28.172 61.6036 28.04 61.6036 27.88C61.6036 27.712 61.6076 27.576 61.6156 27.472C61.6476 26.904 61.7796 26.408 62.0116 25.984C62.2436 25.552 62.5596 25.22 62.9596 24.988C63.3676 24.756 63.8436 24.64 64.3876 24.64C64.9956 24.64 65.5036 24.768 65.9116 25.024C66.3276 25.28 66.6436 25.644 66.8596 26.116C67.0756 26.588 67.1836 27.14 67.1836 27.772V27.976C67.1836 28.064 67.1556 28.132 67.0996 28.18C67.0516 28.228 66.9876 28.252 66.9076 28.252H62.7556C62.7556 28.26 62.7556 28.276 62.7556 28.3C62.7556 28.324 62.7556 28.344 62.7556 28.36C62.7716 28.688 62.8436 28.996 62.9716 29.284C63.0996 29.564 63.2836 29.792 63.5236 29.968C63.7636 30.144 64.0516 30.232 64.3876 30.232C64.6756 30.232 64.9156 30.188 65.1076 30.1C65.2996 30.012 65.4556 29.916 65.5756 29.812C65.6956 29.7 65.7756 29.616 65.8156 29.56C65.8876 29.456 65.9436 29.396 65.9836 29.38C66.0236 29.356 66.0876 29.344 66.1756 29.344H66.7516C66.8316 29.344 66.8956 29.368 66.9436 29.416C66.9996 29.456 67.0236 29.516 67.0156 29.596C67.0076 29.716 66.9436 29.864 66.8236 30.04C66.7036 30.208 66.5316 30.376 66.3076 30.544C66.0836 30.712 65.8116 30.852 65.4916 30.964C65.1716 31.068 64.8036 31.12 64.3876 31.12ZM62.7556 27.424H66.0436V27.388C66.0436 27.028 65.9756 26.708 65.8396 26.428C65.7116 26.148 65.5236 25.928 65.2756 25.768C65.0276 25.6 64.7316 25.516 64.3876 25.516C64.0436 25.516 63.7476 25.6 63.4996 25.768C63.2596 25.928 63.0756 26.148 62.9476 26.428C62.8196 26.708 62.7556 27.028 62.7556 27.388V27.424Z" fill="black"/>
<path d="M54.32 31C54.232 31 54.164 30.976 54.116 30.928C54.068 30.872 54.044 30.804 54.044 30.724V22.888C54.044 22.8 54.068 22.732 54.116 22.684C54.164 22.628 54.232 22.6 54.32 22.6H57.608C58.208 22.6 58.696 22.7 59.072 22.9C59.456 23.092 59.736 23.356 59.912 23.692C60.096 24.028 60.188 24.404 60.188 24.82C60.188 25.148 60.132 25.432 60.02 25.672C59.916 25.904 59.784 26.096 59.624 26.248C59.464 26.392 59.308 26.504 59.156 26.584C59.468 26.736 59.744 26.984 59.984 27.328C60.232 27.672 60.356 28.088 60.356 28.576C60.356 29.016 60.256 29.42 60.056 29.788C59.856 30.156 59.556 30.452 59.156 30.676C58.764 30.892 58.276 31 57.692 31H54.32ZM55.22 30.028H57.536C58.056 30.028 58.456 29.888 58.736 29.608C59.016 29.328 59.156 28.984 59.156 28.576C59.156 28.152 59.016 27.804 58.736 27.532C58.456 27.252 58.056 27.112 57.536 27.112H55.22V30.028ZM55.22 26.152H57.428C57.94 26.152 58.328 26.036 58.592 25.804C58.856 25.564 58.988 25.24 58.988 24.832C58.988 24.424 58.856 24.112 58.592 23.896C58.328 23.68 57.94 23.572 57.428 23.572H55.22V26.152Z" fill="black"/>
<path d="M133.624 19.64C133.08 19.64 132.632 19.568 132.28 19.424C131.936 19.28 131.664 19.104 131.464 18.896C131.272 18.696 131.132 18.492 131.044 18.284C130.964 18.084 130.92 17.924 130.912 17.804C130.904 17.724 130.928 17.656 130.984 17.6C131.048 17.544 131.116 17.516 131.188 17.516H131.764C131.836 17.516 131.896 17.532 131.944 17.564C131.992 17.596 132.032 17.664 132.064 17.768C132.112 17.888 132.184 18.02 132.28 18.164C132.376 18.316 132.524 18.444 132.724 18.548C132.924 18.66 133.204 18.716 133.564 18.716C133.94 18.716 134.256 18.664 134.512 18.56C134.768 18.464 134.96 18.288 135.088 18.032C135.224 17.784 135.292 17.44 135.292 17V16.184C135.1 16.432 134.848 16.64 134.536 16.808C134.224 16.968 133.832 17.048 133.36 17.048C132.912 17.048 132.528 16.972 132.208 16.82C131.888 16.66 131.624 16.448 131.416 16.184C131.216 15.912 131.064 15.604 130.96 15.26C130.864 14.916 130.808 14.556 130.792 14.18C130.784 13.956 130.784 13.736 130.792 13.52C130.808 13.144 130.864 12.784 130.96 12.44C131.064 12.096 131.216 11.788 131.416 11.516C131.624 11.244 131.888 11.032 132.208 10.88C132.528 10.72 132.912 10.64 133.36 10.64C133.84 10.64 134.236 10.732 134.548 10.916C134.868 11.092 135.128 11.308 135.328 11.564V11.048C135.328 10.968 135.352 10.9 135.4 10.844C135.456 10.788 135.524 10.76 135.604 10.76H136.156C136.236 10.76 136.304 10.788 136.36 10.844C136.416 10.9 136.444 10.968 136.444 11.048V16.868C136.444 17.404 136.352 17.88 136.168 18.296C135.992 18.712 135.696 19.04 135.28 19.28C134.872 19.52 134.32 19.64 133.624 19.64ZM133.6 16.088C134 16.088 134.32 15.996 134.56 15.812C134.808 15.628 134.988 15.396 135.1 15.116C135.22 14.836 135.284 14.552 135.292 14.264C135.3 14.152 135.304 14.016 135.304 13.856C135.304 13.688 135.3 13.548 135.292 13.436C135.284 13.148 135.22 12.864 135.1 12.584C134.988 12.304 134.808 12.072 134.56 11.888C134.32 11.704 134 11.612 133.6 11.612C133.2 11.612 132.88 11.704 132.64 11.888C132.4 12.064 132.228 12.3 132.124 12.596C132.02 12.884 131.96 13.196 131.944 13.532C131.936 13.74 131.936 13.952 131.944 14.168C131.96 14.504 132.02 14.82 132.124 15.116C132.228 15.404 132.4 15.64 132.64 15.824C132.88 16 133.2 16.088 133.6 16.088Z" fill="black"/>
<path d="M124.066 17C123.986 17 123.918 16.976 123.862 16.928C123.814 16.872 123.79 16.804 123.79 16.724V11.036C123.79 10.956 123.814 10.892 123.862 10.844C123.918 10.788 123.986 10.76 124.066 10.76H124.63C124.71 10.76 124.774 10.788 124.822 10.844C124.878 10.892 124.906 10.956 124.906 11.036V11.564C125.114 11.292 125.374 11.072 125.686 10.904C126.006 10.728 126.414 10.64 126.91 10.64C127.43 10.64 127.87 10.756 128.23 10.988C128.598 11.212 128.874 11.528 129.058 11.936C129.242 12.336 129.334 12.804 129.334 13.34V16.724C129.334 16.804 129.31 16.872 129.262 16.928C129.214 16.976 129.15 17 129.07 17H128.47C128.39 17 128.322 16.976 128.266 16.928C128.218 16.872 128.194 16.804 128.194 16.724V13.4C128.194 12.84 128.058 12.404 127.786 12.092C127.514 11.772 127.114 11.612 126.586 11.612C126.09 11.612 125.69 11.772 125.386 12.092C125.09 12.404 124.942 12.84 124.942 13.4V16.724C124.942 16.804 124.914 16.872 124.858 16.928C124.81 16.976 124.746 17 124.666 17H124.066Z" fill="black"/>
<path d="M118.9 17.12C118.388 17.12 117.952 17.008 117.592 16.784C117.24 16.552 116.972 16.232 116.788 15.824C116.604 15.416 116.512 14.948 116.512 14.42V11.036C116.512 10.956 116.536 10.892 116.584 10.844C116.64 10.788 116.708 10.76 116.788 10.76H117.388C117.468 10.76 117.532 10.788 117.58 10.844C117.636 10.892 117.664 10.956 117.664 11.036V14.36C117.664 15.552 118.184 16.148 119.224 16.148C119.72 16.148 120.116 15.992 120.412 15.68C120.716 15.36 120.868 14.92 120.868 14.36V11.036C120.868 10.956 120.892 10.892 120.94 10.844C120.996 10.788 121.064 10.76 121.144 10.76H121.732C121.82 10.76 121.888 10.788 121.936 10.844C121.984 10.892 122.008 10.956 122.008 11.036V16.724C122.008 16.804 121.984 16.872 121.936 16.928C121.888 16.976 121.82 17 121.732 17H121.18C121.1 17 121.032 16.976 120.976 16.928C120.928 16.872 120.904 16.804 120.904 16.724V16.196C120.688 16.476 120.424 16.7 120.112 16.868C119.808 17.036 119.404 17.12 118.9 17.12Z" fill="black"/>
<path d="M109.57 17C109.49 17 109.422 16.976 109.366 16.928C109.318 16.872 109.294 16.804 109.294 16.724V11.036C109.294 10.956 109.318 10.892 109.366 10.844C109.422 10.788 109.49 10.76 109.57 10.76H110.134C110.214 10.76 110.278 10.788 110.326 10.844C110.382 10.892 110.41 10.956 110.41 11.036V11.564C110.618 11.292 110.878 11.072 111.19 10.904C111.51 10.728 111.918 10.64 112.414 10.64C112.934 10.64 113.374 10.756 113.734 10.988C114.102 11.212 114.378 11.528 114.562 11.936C114.746 12.336 114.838 12.804 114.838 13.34V16.724C114.838 16.804 114.814 16.872 114.766 16.928C114.718 16.976 114.654 17 114.574 17H113.974C113.894 17 113.826 16.976 113.77 16.928C113.722 16.872 113.698 16.804 113.698 16.724V13.4C113.698 12.84 113.562 12.404 113.29 12.092C113.018 11.772 112.618 11.612 112.09 11.612C111.594 11.612 111.194 11.772 110.89 12.092C110.594 12.404 110.446 12.84 110.446 13.4V16.724C110.446 16.804 110.418 16.872 110.362 16.928C110.314 16.976 110.25 17 110.17 17H109.57Z" fill="black"/>
<path d="M102.293 17C102.213 17 102.145 16.976 102.089 16.928C102.041 16.872 102.017 16.804 102.017 16.724V11.036C102.017 10.956 102.041 10.892 102.089 10.844C102.145 10.788 102.213 10.76 102.293 10.76H102.857C102.937 10.76 103.001 10.788 103.049 10.844C103.105 10.892 103.133 10.956 103.133 11.036V11.564C103.341 11.292 103.601 11.072 103.913 10.904C104.233 10.728 104.641 10.64 105.137 10.64C105.657 10.64 106.097 10.756 106.457 10.988C106.825 11.212 107.101 11.528 107.285 11.936C107.469 12.336 107.561 12.804 107.561 13.34V16.724C107.561 16.804 107.537 16.872 107.489 16.928C107.441 16.976 107.377 17 107.297 17H106.697C106.617 17 106.549 16.976 106.493 16.928C106.445 16.872 106.421 16.804 106.421 16.724V13.4C106.421 12.84 106.285 12.404 106.013 12.092C105.741 11.772 105.341 11.612 104.813 11.612C104.317 11.612 103.917 11.772 103.613 12.092C103.317 12.404 103.169 12.84 103.169 13.4V16.724C103.169 16.804 103.141 16.872 103.085 16.928C103.037 16.976 102.973 17 102.893 17H102.293Z" fill="black"/>
<path d="M99.1677 17C99.0797 17 99.0117 16.976 98.9637 16.928C98.9157 16.872 98.8917 16.804 98.8917 16.724V8.87601C98.8917 8.79601 98.9157 8.73201 98.9637 8.68401C99.0117 8.62801 99.0797 8.60001 99.1677 8.60001H99.8037C99.8837 8.60001 99.9477 8.62801 99.9957 8.68401C100.052 8.73201 100.08 8.79601 100.08 8.87601V16.724C100.08 16.804 100.052 16.872 99.9957 16.928C99.9477 16.976 99.8837 17 99.8037 17H99.1677Z" fill="black"/>
<path d="M93.2212 13.904C93.1412 13.904 93.0732 13.88 93.0172 13.832C92.9692 13.776 92.9452 13.708 92.9452 13.628V13.172C92.9452 13.092 92.9692 13.028 93.0172 12.98C93.0732 12.924 93.1412 12.896 93.2212 12.896H96.8212C96.9012 12.896 96.9652 12.924 97.0132 12.98C97.0692 13.028 97.0972 13.092 97.0972 13.172V13.628C97.0972 13.708 97.0692 13.776 97.0132 13.832C96.9652 13.88 96.9012 13.904 96.8212 13.904H93.2212Z" fill="black"/>
<path d="M88.6706 17.12C88.0626 17.12 87.5546 17.004 87.1466 16.772C86.7386 16.54 86.4266 16.22 86.2106 15.812C85.9946 15.396 85.8746 14.924 85.8506 14.396C85.8426 14.26 85.8386 14.088 85.8386 13.88C85.8386 13.664 85.8426 13.492 85.8506 13.364C85.8746 12.828 85.9946 12.356 86.2106 11.948C86.4346 11.54 86.7506 11.22 87.1586 10.988C87.5666 10.756 88.0706 10.64 88.6706 10.64C89.2706 10.64 89.7746 10.756 90.1826 10.988C90.5906 11.22 90.9026 11.54 91.1186 11.948C91.3426 12.356 91.4666 12.828 91.4906 13.364C91.4986 13.492 91.5026 13.664 91.5026 13.88C91.5026 14.088 91.4986 14.26 91.4906 14.396C91.4666 14.924 91.3466 15.396 91.1306 15.812C90.9146 16.22 90.6026 16.54 90.1946 16.772C89.7866 17.004 89.2786 17.12 88.6706 17.12ZM88.6706 16.196C89.1666 16.196 89.5626 16.04 89.8586 15.728C90.1546 15.408 90.3146 14.944 90.3386 14.336C90.3466 14.216 90.3506 14.064 90.3506 13.88C90.3506 13.696 90.3466 13.544 90.3386 13.424C90.3146 12.816 90.1546 12.356 89.8586 12.044C89.5626 11.724 89.1666 11.564 88.6706 11.564C88.1746 11.564 87.7746 11.724 87.4706 12.044C87.1746 12.356 87.0186 12.816 87.0026 13.424C86.9946 13.544 86.9906 13.696 86.9906 13.88C86.9906 14.064 86.9946 14.216 87.0026 14.336C87.0186 14.944 87.1746 15.408 87.4706 15.728C87.7746 16.04 88.1746 16.196 88.6706 16.196Z" fill="black"/>
<path d="M81.9492 17C81.8692 17 81.8012 16.976 81.7452 16.928C81.6972 16.872 81.6732 16.804 81.6732 16.724V11.048C81.6732 10.968 81.6972 10.9 81.7452 10.844C81.8012 10.788 81.8692 10.76 81.9492 10.76H82.5012C82.5812 10.76 82.6492 10.788 82.7052 10.844C82.7612 10.9 82.7892 10.968 82.7892 11.048V11.576C82.9492 11.304 83.1692 11.1 83.4492 10.964C83.7292 10.828 84.0652 10.76 84.4572 10.76H84.9372C85.0172 10.76 85.0812 10.788 85.1292 10.844C85.1772 10.892 85.2012 10.956 85.2012 11.036V11.528C85.2012 11.608 85.1772 11.672 85.1292 11.72C85.0812 11.768 85.0172 11.792 84.9372 11.792H84.2172C83.7852 11.792 83.4452 11.92 83.1972 12.176C82.9492 12.424 82.8252 12.764 82.8252 13.196V16.724C82.8252 16.804 82.7972 16.872 82.7412 16.928C82.6852 16.976 82.6172 17 82.5372 17H81.9492Z" fill="black"/>
<path d="M79.4217 17C78.9737 17 78.6097 16.916 78.3297 16.748C78.0497 16.572 77.8457 16.328 77.7177 16.016C77.5897 15.696 77.5257 15.32 77.5257 14.888V11.72H76.5897C76.5097 11.72 76.4417 11.696 76.3857 11.648C76.3377 11.592 76.3137 11.524 76.3137 11.444V11.036C76.3137 10.956 76.3377 10.892 76.3857 10.844C76.4417 10.788 76.5097 10.76 76.5897 10.76H77.5257V8.75601C77.5257 8.67601 77.5497 8.61201 77.5977 8.56401C77.6537 8.50801 77.7217 8.48001 77.8017 8.48001H78.3657C78.4457 8.48001 78.5097 8.50801 78.5577 8.56401C78.6137 8.61201 78.6417 8.67601 78.6417 8.75601V10.76H80.1297C80.2097 10.76 80.2737 10.788 80.3217 10.844C80.3777 10.892 80.4057 10.956 80.4057 11.036V11.444C80.4057 11.524 80.3777 11.592 80.3217 11.648C80.2737 11.696 80.2097 11.72 80.1297 11.72H78.6417V14.804C78.6417 15.18 78.7057 15.476 78.8337 15.692C78.9617 15.908 79.1897 16.016 79.5177 16.016H80.2497C80.3297 16.016 80.3937 16.044 80.4417 16.1C80.4977 16.148 80.5257 16.212 80.5257 16.292V16.724C80.5257 16.804 80.4977 16.872 80.4417 16.928C80.3937 16.976 80.3297 17 80.2497 17H79.4217Z" fill="black"/>
<path d="M71.0862 17C71.0062 17 70.9382 16.976 70.8822 16.928C70.8342 16.872 70.8102 16.804 70.8102 16.724V8.75601C70.8102 8.67601 70.8342 8.61201 70.8822 8.56401C70.9382 8.50801 71.0062 8.48001 71.0862 8.48001H71.6502C71.7302 8.48001 71.7942 8.50801 71.8422 8.56401C71.8982 8.61201 71.9262 8.67601 71.9262 8.75601V12.932L74.2902 10.964C74.3862 10.884 74.4582 10.832 74.5062 10.808C74.5622 10.776 74.6502 10.76 74.7702 10.76H75.4062C75.4782 10.76 75.5382 10.784 75.5862 10.832C75.6342 10.88 75.6582 10.94 75.6582 11.012C75.6582 11.044 75.6462 11.08 75.6222 11.12C75.6062 11.16 75.5702 11.2 75.5142 11.24L72.7422 13.544L75.8142 16.532C75.9102 16.612 75.9582 16.684 75.9582 16.748C75.9582 16.82 75.9342 16.88 75.8862 16.928C75.8382 16.976 75.7782 17 75.7062 17H75.0822C74.9622 17 74.8742 16.988 74.8182 16.964C74.7622 16.932 74.6902 16.876 74.6022 16.796L71.9262 14.24V16.724C71.9262 16.804 71.8982 16.872 71.8422 16.928C71.7942 16.976 71.7302 17 71.6502 17H71.0862Z" fill="black"/>
<path d="M66.5673 17.12C65.7433 17.12 65.0873 16.868 64.5993 16.364C64.1113 15.852 63.8433 15.156 63.7953 14.276C63.7873 14.172 63.7833 14.04 63.7833 13.88C63.7833 13.712 63.7873 13.576 63.7953 13.472C63.8273 12.904 63.9593 12.408 64.1913 11.984C64.4233 11.552 64.7393 11.22 65.1393 10.988C65.5473 10.756 66.0233 10.64 66.5673 10.64C67.1753 10.64 67.6833 10.768 68.0913 11.024C68.5073 11.28 68.8233 11.644 69.0393 12.116C69.2553 12.588 69.3633 13.14 69.3633 13.772V13.976C69.3633 14.064 69.3353 14.132 69.2793 14.18C69.2313 14.228 69.1673 14.252 69.0873 14.252H64.9353C64.9353 14.26 64.9353 14.276 64.9353 14.3C64.9353 14.324 64.9353 14.344 64.9353 14.36C64.9513 14.688 65.0233 14.996 65.1513 15.284C65.2793 15.564 65.4633 15.792 65.7033 15.968C65.9433 16.144 66.2313 16.232 66.5673 16.232C66.8553 16.232 67.0953 16.188 67.2873 16.1C67.4793 16.012 67.6353 15.916 67.7553 15.812C67.8753 15.7 67.9553 15.616 67.9953 15.56C68.0673 15.456 68.1233 15.396 68.1633 15.38C68.2033 15.356 68.2673 15.344 68.3553 15.344H68.9313C69.0113 15.344 69.0753 15.368 69.1233 15.416C69.1793 15.456 69.2033 15.516 69.1953 15.596C69.1873 15.716 69.1233 15.864 69.0033 16.04C68.8833 16.208 68.7113 16.376 68.4873 16.544C68.2633 16.712 67.9913 16.852 67.6713 16.964C67.3513 17.068 66.9833 17.12 66.5673 17.12ZM64.9353 13.424H68.2233V13.388C68.2233 13.028 68.1553 12.708 68.0193 12.428C67.8913 12.148 67.7033 11.928 67.4553 11.768C67.2073 11.6 66.9113 11.516 66.5673 11.516C66.2233 11.516 65.9273 11.6 65.6793 11.768C65.4393 11.928 65.2553 12.148 65.1273 12.428C64.9993 12.708 64.9353 13.028 64.9353 13.388V13.424Z" fill="black"/>
<path d="M61.4533 17C61.3733 17 61.3053 16.976 61.2493 16.928C61.2013 16.872 61.1773 16.804 61.1773 16.724V8.75601C61.1773 8.67601 61.2013 8.61201 61.2493 8.56401C61.3053 8.50801 61.3733 8.48001 61.4533 8.48001H62.0173C62.1053 8.48001 62.1733 8.50801 62.2213 8.56401C62.2693 8.61201 62.2933 8.67601 62.2933 8.75601V16.724C62.2933 16.804 62.2693 16.872 62.2213 16.928C62.1733 16.976 62.1053 17 62.0173 17H61.4533Z" fill="black"/>
<path d="M54.32 17C54.232 17 54.164 16.976 54.116 16.928C54.068 16.872 54.044 16.804 54.044 16.724V8.88801C54.044 8.80001 54.068 8.73201 54.116 8.68401C54.164 8.62801 54.232 8.60001 54.32 8.60001H59.276C59.364 8.60001 59.432 8.62801 59.48 8.68401C59.528 8.73201 59.552 8.80001 59.552 8.88801V9.34401C59.552 9.43201 59.528 9.50001 59.48 9.54801C59.432 9.59601 59.364 9.62001 59.276 9.62001H55.196V12.248H59.012C59.1 12.248 59.168 12.276 59.216 12.332C59.264 12.38 59.288 12.448 59.288 12.536V12.98C59.288 13.06 59.264 13.128 59.216 13.184C59.168 13.232 59.1 13.256 59.012 13.256H55.196V15.98H59.372C59.46 15.98 59.528 16.004 59.576 16.052C59.624 16.1 59.648 16.168 59.648 16.256V16.724C59.648 16.804 59.624 16.872 59.576 16.928C59.528 16.976 59.46 17 59.372 17H54.32Z" fill="black"/>
<defs>
<clipPath id="clip0_269_5">
<rect width="46" height="40" fill="white"/>
</clipPath>
</defs>
</svg>
