<svg width="138" height="40" viewBox="0 0 138 40" fill="none" xmlns="http://www.w3.org/2000/svg">
<g clip-path="url(#clip0_269_4)">
<path d="M15 7.06641H31.7897V11.4658H20.6925V16.2572H30.4827V20.7309H20.6884V25.5224H31.7856V29.9218H15V7.06641Z" fill="black"/>
<path d="M34.6859 13.1006H39.9879L40.1647 14.5574C40.8963 14.0374 41.7841 13.6041 42.8321 13.2615C43.8802 12.919 44.9571 12.7457 46.0667 12.7457C48.2122 12.7457 49.7823 13.2657 50.7852 14.3057C51.788 15.3457 52.2853 16.9552 52.2853 19.1342V29.9222H46.5928V19.5964C46.5928 18.6514 46.3874 17.9746 45.9723 17.5742C45.5613 17.174 44.8461 16.9717 43.8349 16.9717C43.2226 16.9717 42.5978 17.112 41.9608 17.3968C41.3238 17.6816 40.7935 18.0364 40.3702 18.4616V29.9264H34.6777V13.1006H34.6859Z" fill="black"/>
<path d="M55.8984 13.1006H60.8469L61.1304 14.5574C62.5896 13.3523 64.3487 12.7457 66.3955 12.7457C71.5577 12.7457 74.1348 15.5479 74.1348 21.1565C74.1348 24.1362 73.4278 26.402 72.014 27.9537C70.6001 29.5054 68.6314 30.2772 66.1119 30.2772C64.3446 30.2772 62.8361 29.9099 61.5867 29.1753V37.5861H55.8942V13.1006H55.8984ZM67.4025 24.8131C68.0272 23.9628 68.3396 22.7083 68.3396 21.0492C68.3396 19.4892 68.0642 18.412 67.5093 17.8178C66.9545 17.2276 66.042 16.9304 64.7679 16.9304C63.5678 16.9304 62.5073 17.3556 61.5867 18.2098V25.0235C62.0593 25.3784 62.5238 25.6426 62.9841 25.8242C63.4445 26.0016 64.0034 26.0883 64.6611 26.0883C65.8653 26.0924 66.7778 25.6632 67.4025 24.8131Z" fill="black"/>
<path d="M78.1808 28.91C77.0628 27.9979 76.5039 26.6897 76.5039 24.9894C76.5039 23.2395 77.0998 21.8776 78.2876 20.9078C79.4755 19.9379 81.214 19.4509 83.5033 19.4509H88.1683V19.063C88.1683 18.1881 87.8806 17.5731 87.301 17.2182C86.7216 16.8633 85.6694 16.6859 84.1363 16.6859C82.2292 16.6859 80.355 16.983 78.5178 17.5731V13.8836C79.3645 13.5535 80.392 13.2811 81.5921 13.0665C82.7923 12.8519 84.0294 12.7487 85.3036 12.7487C87.9669 12.7487 90.0179 13.2934 91.4522 14.383C92.8908 15.4725 93.61 17.1522 93.61 19.422V29.9294H88.6245L88.3409 28.5097C87.0463 29.6942 85.0775 30.2843 82.4388 30.2843C80.7167 30.2761 79.2987 29.8221 78.1808 28.91ZM88.1642 25.1297V22.7525H84.1363C83.2896 22.7525 82.6567 22.9176 82.2457 23.2478C81.8346 23.5779 81.6291 24.0897 81.6291 24.7747C81.6291 26.0995 82.5004 26.764 84.2431 26.764C85.9365 26.764 87.2477 26.2192 88.1642 25.1297Z" fill="black"/>
<path d="M98.5332 29.07C97.7317 28.2652 97.3331 26.9776 97.3331 25.2029V6H103.025V24.6334C103.025 25.1782 103.132 25.5496 103.342 25.7518C103.556 25.954 103.897 26.0532 104.366 26.0532C105.002 26.0532 105.566 25.9706 106.063 25.8055V29.6725C105.496 29.8871 104.949 30.0398 104.419 30.1348C103.888 30.2297 103.248 30.275 102.491 30.275C100.654 30.275 99.3306 29.8748 98.5332 29.07Z" fill="black"/>
<path d="M118.701 30.9675C121.075 30.9675 123 29.0347 123 26.6506C123 24.2665 121.075 22.3338 118.701 22.3338C116.326 22.3338 114.402 24.2665 114.402 26.6506C114.402 29.0347 116.326 30.9675 118.701 30.9675Z" fill="#FFC700"/>
</g>
<defs>
<clipPath id="clip0_269_4">
<rect width="108" height="32" fill="white" transform="translate(15 6)"/>
</clipPath>
</defs>
</svg>
