<svg width="28" height="28" viewBox="0 0 28 28" fill="none" xmlns="http://www.w3.org/2000/svg">
<g clip-path="url(#clip0_180_48)">
<path d="M20.72 0H7.28C5.34922 0 3.49753 0.766998 2.13226 2.13226C0.766998 3.49753 0 5.34922 0 7.28V20.72C0 22.6508 0.766998 24.5025 2.13226 25.8677C3.49753 27.233 5.34922 28 7.28 28H20.72C22.6508 28 24.5025 27.233 25.8677 25.8677C27.233 24.5025 28 22.6508 28 20.72V7.28C28 5.34922 27.233 3.49753 25.8677 2.13226C24.5025 0.766998 22.6508 0 20.72 0ZM14.56 26.88V17.36C14.56 17.2115 14.501 17.069 14.396 16.964C14.291 16.859 14.1485 16.8 14 16.8H11.2V13.44H14C14.1485 13.44 14.291 13.381 14.396 13.276C14.501 13.171 14.56 13.0285 14.56 12.88V8.4C14.56 7.65739 14.855 6.9452 15.3801 6.4201C15.9052 5.895 16.6174 5.6 17.36 5.6H21.84V8.96H19.6C19.1544 8.96 18.7271 9.137 18.4121 9.45206C18.097 9.76712 17.92 10.1944 17.92 10.64V12.88C17.92 13.0285 17.979 13.171 18.084 13.276C18.189 13.381 18.3315 13.44 18.48 13.44H21.84V16.8H18.48C18.3315 16.8 18.189 16.859 18.084 16.964C17.979 17.069 17.92 17.2115 17.92 17.36V26.88H14.56ZM26.88 20.72C26.88 22.3537 26.231 23.9206 25.0758 25.0758C23.9206 26.231 22.3537 26.88 20.72 26.88H19.04V17.92H22.4C22.5485 17.92 22.691 17.861 22.796 17.756C22.901 17.651 22.96 17.5085 22.96 17.36V12.88C22.96 12.7315 22.901 12.589 22.796 12.484C22.691 12.379 22.5485 12.32 22.4 12.32H19.04V10.64C19.04 10.4915 19.099 10.349 19.204 10.244C19.309 10.139 19.4515 10.08 19.6 10.08H22.4C22.5485 10.08 22.691 10.021 22.796 9.91598C22.901 9.81096 22.96 9.66852 22.96 9.52V5.04C22.96 4.89148 22.901 4.74904 22.796 4.64402C22.691 4.539 22.5485 4.48 22.4 4.48H17.36C16.3204 4.48 15.3233 4.893 14.5881 5.62814C13.853 6.36328 13.44 7.36035 13.44 8.4V12.32H10.64C10.4915 12.32 10.349 12.379 10.244 12.484C10.139 12.589 10.08 12.7315 10.08 12.88V17.36C10.08 17.5085 10.139 17.651 10.244 17.756C10.349 17.861 10.4915 17.92 10.64 17.92H13.44V26.88H7.28C5.64627 26.88 4.07945 26.231 2.92422 25.0758C1.769 23.9206 1.12 22.3537 1.12 20.72V7.28C1.12 5.64627 1.769 4.07945 2.92422 2.92422C4.07945 1.769 5.64627 1.12 7.28 1.12H20.72C22.3537 1.12 23.9206 1.769 25.0758 2.92422C26.231 4.07945 26.88 5.64627 26.88 7.28V20.72Z" fill="white"/>
</g>
<defs>
<clipPath id="clip0_180_48">
<rect width="28" height="28" fill="white"/>
</clipPath>
</defs>
</svg>
