<svg width="138" height="40" viewBox="0 0 138 40" fill="none" xmlns="http://www.w3.org/2000/svg">
<g clip-path="url(#clip0_269_6)">
<path d="M74.1211 13.7349H77.0082V21.7293C77.0082 25.7872 74.7616 28.1147 70.8478 28.1147C66.9748 28.1147 64.7485 25.8277 64.7485 21.8406V13.745H67.6355V21.7495C67.6355 24.1175 68.8046 25.3824 70.8885 25.3824C72.9724 25.3824 74.1211 24.1479 74.1211 21.8507V13.7349ZM57.8563 19.4423H51.33V13.7349H48.443V27.9022H51.33V22.1442H57.8461V27.9022H60.7331V13.7349H57.8461V19.4423H57.8563ZM130.154 13.7349V27.8819H133V13.7349H130.154ZM118.819 21.8001H124.075V19.2197H118.819V16.3154H126.443V13.745H115.973V27.8921H126.718V25.3116H118.819V21.8001ZM107.495 23.4698L104.262 13.7248H101.904L98.6709 23.4698L95.5298 13.7349H92.4598L97.4206 27.8921H99.8095L103.042 18.5923L106.275 27.8921H108.684L113.635 13.7349H110.636L107.495 23.4698ZM87.3262 13.8159L93.5373 27.8921H90.508L89.2271 24.9473H82.711L82.6195 25.1497L81.42 27.8921H78.472L84.7441 13.7349H87.2652L87.3262 13.8159ZM88.0174 22.0531L85.964 17.3071L83.9207 22.0531L83.7784 22.3769H88.1496L88.0174 22.0531Z" fill="#24272A"/>
<path d="M20.0201 26.3943C20.0608 26.364 20.0709 26.3033 20.0506 26.2527C17.2475 20.2552 13.7506 14.604 9.6309 9.41387C9.6309 9.41387 6.35759 12.5104 6.5914 15.6171C6.64617 16.3333 6.84225 17.0318 7.16844 17.6725C7.49462 18.3133 7.94451 18.8837 8.49236 19.3512C11.3489 22.1239 18.2614 25.6253 19.8676 26.4247C19.9184 26.4449 19.9794 26.4348 20.0201 26.3943ZM18.9527 28.7623C18.9324 28.7016 18.8714 28.6611 18.8002 28.6611L7.29282 29.0558C8.54319 31.2719 10.6475 32.9922 12.833 32.466C14.3477 32.0916 17.7633 29.7135 18.8917 28.904C18.9832 28.8331 18.9527 28.7724 18.9527 28.7623ZM19.1255 27.7402C19.1865 27.6492 19.0849 27.5682 19.0849 27.5682C14.0326 24.1681 4.23299 18.9464 4.23299 18.9464C3.90818 19.9375 3.81732 20.9897 3.96746 22.0214C4.11761 23.0531 4.50472 24.0365 5.09871 24.895C5.69269 25.7536 6.47756 26.4642 7.39231 26.9717C8.30705 27.4792 9.32703 27.7699 10.373 27.8212C10.5458 27.8516 17.2144 27.8212 19.0035 27.8111C19.0544 27.801 19.095 27.7807 19.1255 27.7402ZM19.8879 4.46544C19.3898 4.50592 18.0378 4.81962 18.0378 4.81962C14.9881 5.59882 14.2664 8.36144 14.2664 8.36144C13.7073 10.0919 14.2766 12.0045 14.2766 12.0045C15.2931 16.4975 20.2946 23.8948 21.3721 25.4431C21.4433 25.5241 21.5043 25.4937 21.5043 25.4937C21.5653 25.4735 21.6161 25.4229 21.6161 25.352C23.2832 8.83706 19.8879 4.46544 19.8879 4.46544ZM23.7 25.4735C23.761 25.4937 23.8322 25.4735 23.8627 25.4128C24.9707 23.824 29.9417 16.4671 30.9582 11.9943C30.9582 11.9943 31.5072 9.82876 30.9785 8.35132C30.9785 8.35132 30.2263 5.54823 27.1766 4.8095C27.1766 4.8095 26.3024 4.58688 25.3672 4.45532C25.3672 4.45532 21.9515 8.82694 23.6187 25.3419C23.6085 25.4026 23.6492 25.4532 23.7 25.4735ZM26.4244 28.6712C26.3973 28.6767 26.3716 28.6876 26.3489 28.7032C26.3262 28.7189 26.3069 28.739 26.2922 28.7623C26.2821 28.823 26.2922 28.8736 26.3329 28.9141C27.4308 29.7034 30.7752 32.0309 32.3814 32.4762C32.3814 32.4762 35.3599 33.4881 37.9419 29.0659L26.4244 28.6712ZM41.0119 18.9262C41.0119 18.9262 31.2327 24.1579 26.1702 27.5581C26.1194 27.5986 26.0889 27.6593 26.1093 27.72C26.1093 27.72 26.1601 27.8111 26.2312 27.8111C28.0407 27.8111 34.8923 27.8212 35.0753 27.7908C35.7564 27.7402 36.4273 27.5884 37.0575 27.3355C37.0575 27.3355 39.4973 26.5664 40.7578 23.8038C40.7578 23.8038 41.8862 21.5572 41.0119 18.9262ZM25.2452 26.3943C25.2858 26.4247 25.3468 26.4348 25.3977 26.4045C27.0445 25.5848 33.9062 22.1138 36.7424 19.3512C36.7424 19.3512 38.5417 17.9142 38.6332 15.5969C38.8365 12.389 35.5937 9.41387 35.5937 9.41387C35.5937 9.41387 29.596 16.6493 25.1944 26.2122C25.1873 26.2444 25.1882 26.2778 25.1971 26.3095C25.2059 26.3413 25.2225 26.3704 25.2452 26.3943Z" fill="#CE0E2D"/>
</g>
<defs>
<clipPath id="clip0_269_6">
<rect width="129" height="32" fill="white" transform="translate(4 4)"/>
</clipPath>
</defs>
</svg>
