<svg width="28" height="28" viewBox="0 0 28 28" fill="none" xmlns="http://www.w3.org/2000/svg">
<g clip-path="url(#clip0_180_44)">
<path d="M20.72 28H7.28C5.34922 28 3.49753 27.233 2.13226 25.8677C0.766998 24.5025 0 22.6508 0 20.72V7.28C0 5.34922 0.766998 3.49753 2.13226 2.13226C3.49753 0.766998 5.34922 0 7.28 0H20.72C22.6508 0 24.5025 0.766998 25.8677 2.13226C27.233 3.49753 28 5.34922 28 7.28V20.72C28 22.6508 27.233 24.5025 25.8677 25.8677C24.5025 27.233 22.6508 28 20.72 28ZM7.28 1.12C5.64627 1.12 4.07945 1.769 2.92422 2.92422C1.769 4.07945 1.12 5.64627 1.12 7.28V20.72C1.12 22.3537 1.769 23.9206 2.92422 25.0758C4.07945 26.231 5.64627 26.88 7.28 26.88H20.72C22.3537 26.88 23.9206 26.231 25.0758 25.0758C26.231 23.9206 26.88 22.3537 26.88 20.72V7.28C26.88 5.64627 26.231 4.07945 25.0758 2.92422C23.9206 1.769 22.3537 1.12 20.72 1.12H7.28Z" fill="white"/>
<path d="M14 20.5352C12.7075 20.5352 11.4439 20.152 10.3692 19.4339C9.29453 18.7158 8.4569 17.6951 7.96226 16.501C7.46763 15.3068 7.33821 13.9928 7.59037 12.7251C7.84253 11.4574 8.46495 10.2929 9.37892 9.37896C10.2929 8.465 11.4573 7.84258 12.725 7.59042C13.9928 7.33826 15.3068 7.46768 16.5009 7.96231C17.6951 8.45694 18.7157 9.29458 19.4338 10.3693C20.1519 11.444 20.5352 12.7075 20.5352 14C20.5337 15.7328 19.8447 17.3942 18.6194 18.6195C17.3942 19.8448 15.7328 20.5338 14 20.5352ZM14 8.59045C12.9287 8.59045 11.8815 8.90819 10.9909 9.50346C10.1003 10.0987 9.40617 10.9448 8.99648 11.9346C8.58678 12.9245 8.47986 14.0136 8.68927 15.0642C8.89867 16.1148 9.41497 17.0796 10.1729 17.8368C10.9308 18.5939 11.8962 19.1092 12.947 19.3175C13.9978 19.5258 15.0868 19.4178 16.0762 19.007C17.0656 18.5963 17.9109 17.9014 18.5053 17.0101C19.0997 16.1188 19.4163 15.0713 19.4152 14C19.4137 12.5643 18.8427 11.1878 17.8275 10.1726C16.8123 9.15733 15.4357 8.58633 14 8.58485V8.59045Z" fill="white"/>
<path d="M21 7.84004C20.6123 7.84004 20.2334 7.72509 19.9111 7.50972C19.5888 7.29436 19.3375 6.98825 19.1892 6.6301C19.0408 6.27196 19.002 5.87787 19.0777 5.49767C19.1533 5.11747 19.34 4.76823 19.6141 4.49412C19.8882 4.22 20.2374 4.03333 20.6176 3.95771C20.9978 3.88208 21.3919 3.92089 21.7501 4.06924C22.1082 4.21759 22.4143 4.46881 22.6297 4.79113C22.845 5.11345 22.96 5.49239 22.96 5.88004C22.96 6.39987 22.7535 6.8984 22.3859 7.26597C22.0184 7.63355 21.5198 7.84004 21 7.84004ZM21 5.04004C20.8339 5.04004 20.6715 5.08931 20.5333 5.18161C20.3952 5.27391 20.2875 5.4051 20.2239 5.55859C20.1604 5.71208 20.1437 5.88098 20.1761 6.04392C20.2086 6.20686 20.2886 6.35654 20.406 6.47401C20.5235 6.59149 20.6732 6.67149 20.8361 6.7039C20.9991 6.73632 21.168 6.71968 21.3215 6.6561C21.4749 6.59253 21.6061 6.48486 21.6984 6.34672C21.7907 6.20859 21.84 6.04618 21.84 5.88004C21.84 5.65726 21.7515 5.44361 21.594 5.28608C21.4364 5.12855 21.2228 5.04004 21 5.04004Z" fill="white"/>
</g>
<defs>
<clipPath id="clip0_180_44">
<rect width="28" height="28" fill="white"/>
</clipPath>
</defs>
</svg>
