<svg width="28" height="28" viewBox="0 0 28 28" fill="none" xmlns="http://www.w3.org/2000/svg">
<g clip-path="url(#clip0_180_39)">
<path d="M20.72 0H7.28C5.34922 0 3.49753 0.766998 2.13226 2.13226C0.766998 3.49753 0 5.34922 0 7.28V20.72C0 22.6508 0.766998 24.5025 2.13226 25.8677C3.49753 27.233 5.34922 28 7.28 28H20.72C22.6508 28 24.5025 27.233 25.8677 25.8677C27.233 24.5025 28 22.6508 28 20.72V7.28C28 5.34922 27.233 3.49753 25.8677 2.13226C24.5025 0.766998 22.6508 0 20.72 0ZM26.88 20.72C26.88 22.3537 26.231 23.9206 25.0758 25.0758C23.9206 26.231 22.3537 26.88 20.72 26.88H7.28C5.64627 26.88 4.07945 26.231 2.92422 25.0758C1.769 23.9206 1.12 22.3537 1.12 20.72V7.28C1.12 5.64627 1.769 4.07945 2.92422 2.92422C4.07945 1.769 5.64627 1.12 7.28 1.12H20.72C22.3537 1.12 23.9206 1.769 25.0758 2.92422C26.231 4.07945 26.88 5.64627 26.88 7.28V20.72Z" fill="white"/>
<path d="M8.4 10.08H4.48C4.33148 10.08 4.18904 10.139 4.08402 10.244C3.979 10.349 3.92 10.4914 3.92 10.64V23.52C3.92 23.6685 3.979 23.8109 4.08402 23.9159C4.18904 24.021 4.33148 24.08 4.48 24.08H8.4C8.54852 24.08 8.69096 24.021 8.79598 23.9159C8.901 23.8109 8.96 23.6685 8.96 23.52V10.64C8.96 10.4914 8.901 10.349 8.79598 10.244C8.69096 10.139 8.54852 10.08 8.4 10.08ZM7.84 22.96H5.04V11.2H7.84V22.96Z" fill="white"/>
<path d="M19.6 10.08C18.2125 10.1245 16.8609 10.5319 15.68 11.2616V10.64C15.68 10.4915 15.621 10.349 15.516 10.244C15.411 10.139 15.2685 10.08 15.12 10.08H11.2C11.0515 10.08 10.909 10.139 10.804 10.244C10.699 10.349 10.64 10.4915 10.64 10.64V23.52C10.64 23.6685 10.699 23.811 10.804 23.916C10.909 24.021 11.0515 24.08 11.2 24.08H15.12C15.2685 24.08 15.411 24.021 15.516 23.916C15.621 23.811 15.68 23.6685 15.68 23.52V15.0136C16.2031 14.7492 16.7749 14.5948 17.36 14.56C18.9336 14.56 19.04 15.68 19.04 15.9264V23.52C19.04 23.6685 19.099 23.811 19.204 23.916C19.309 24.021 19.4515 24.08 19.6 24.08H23.52C23.6685 24.08 23.811 24.021 23.916 23.916C24.021 23.811 24.08 23.6685 24.08 23.52V14.6552C24.1197 14.0337 24.034 13.4105 23.8282 12.8227C23.6223 12.235 23.3004 11.6945 22.8816 11.2336C22.4404 10.8304 21.9223 10.5204 21.3584 10.3221C20.7946 10.1239 20.1965 10.0415 19.6 10.08ZM22.96 22.96H20.16V15.9264C20.16 15.064 19.6 13.44 17.36 13.44C16.4851 13.4872 15.6326 13.7344 14.868 14.1624C14.7756 14.2089 14.698 14.2801 14.6436 14.3681C14.5893 14.4561 14.5603 14.5574 14.56 14.6608V22.96H11.76V11.2H14.56V12.3536C14.5601 12.4612 14.5913 12.5665 14.6497 12.6569C14.7081 12.7473 14.7914 12.8189 14.8894 12.8632C14.9875 12.9075 15.0963 12.9226 15.2027 12.9068C15.3091 12.8909 15.4087 12.8446 15.4896 12.7736C16.651 11.814 18.0947 11.2613 19.6 11.2C20.0466 11.1653 20.4957 11.2202 20.9207 11.3616C21.3458 11.503 21.7383 11.7279 22.0752 12.0232C22.3901 12.3812 22.6305 12.7983 22.7824 13.2502C22.9343 13.7021 22.9947 14.1797 22.96 14.6552V22.96Z" fill="white"/>
<path d="M6.44 3.92004C5.94159 3.92004 5.45437 4.06784 5.03996 4.34474C4.62555 4.62164 4.30256 5.01521 4.11182 5.47568C3.92109 5.93615 3.87119 6.44284 3.96842 6.93167C4.06566 7.4205 4.30566 7.86952 4.65809 8.22195C5.01052 8.57438 5.45954 8.81439 5.94837 8.91162C6.4372 9.00886 6.94389 8.95895 7.40436 8.76822C7.86483 8.57749 8.2584 8.25449 8.5353 7.84008C8.8122 7.42567 8.96 6.93845 8.96 6.44004C8.96 5.7717 8.6945 5.13073 8.22191 4.65814C7.74932 4.18554 7.10835 3.92004 6.44 3.92004ZM6.44 7.84004C6.16311 7.84004 5.89243 7.75794 5.6622 7.6041C5.43197 7.45027 5.25253 7.23162 5.14657 6.9758C5.04061 6.71998 5.01288 6.43849 5.0669 6.16692C5.12092 5.89534 5.25426 5.64589 5.45005 5.45009C5.64584 5.2543 5.8953 5.12096 6.16687 5.06694C6.43845 5.01293 6.71994 5.04065 6.97576 5.14661C7.23157 5.25258 7.45022 5.43202 7.60406 5.66225C7.75789 5.89247 7.84 6.16315 7.84 6.44004C7.84 6.81135 7.6925 7.16744 7.42995 7.42999C7.1674 7.69254 6.8113 7.84004 6.44 7.84004Z" fill="white"/>
</g>
<defs>
<clipPath id="clip0_180_39">
<rect width="28" height="28" fill="white"/>
</clipPath>
</defs>
</svg>
