<svg width="48" height="48" viewBox="0 0 48 48" fill="none" xmlns="http://www.w3.org/2000/svg">
<path d="M41.693 12.0928L38.7795 10.4168C38.505 10.2587 38.1876 10.1877 37.8726 10.2159C36.6022 10.3297 33.2249 10.4191 33.9292 8.06038C33.9968 7.83513 33.9125 7.59233 33.7178 7.46021C33.3022 7.1777 32.8729 6.90893 32.4307 6.65389C26.0595 2.99028 18.4974 3.24149 12.5526 6.65769C10.811 7.65857 11.7593 8.82167 12.5526 8.71248C17.8942 7.9764 23.7669 9.29888 22.9229 13.4848C22.8001 14.0918 22.4678 14.7649 22.0651 15.4815L7.10923 38.7681C6.93215 39.0437 6.97354 39.4065 7.21041 39.6333C8.46836 40.8359 9.89111 41.9087 11.4695 42.8158C12.2054 43.2386 12.9559 43.6144 13.717 43.9437C14.0466 44.0864 14.4308 43.949 14.5987 43.6327L29.2624 15.9969C29.3858 15.764 29.5408 15.5479 29.7315 15.3655C31.3966 13.7742 32.9597 16.6529 33.4853 17.7845C33.618 18.0693 33.8359 18.3059 34.1094 18.4632L37.027 20.1416C37.3205 20.3103 37.6954 20.2103 37.8648 19.9178L41.9177 12.9258C42.0871 12.6334 41.9866 12.2615 41.693 12.0928Z" fill="#6685A3"/>
</svg>
