<svg width="138" height="40" viewBox="0 0 138 40" fill="none" xmlns="http://www.w3.org/2000/svg">
<g clip-path="url(#clip0_128_128)">
<path d="M0 15.7488L0.554495 14.764C1.74982 15.6167 3.01203 16.0107 4.54054 16.0107C5.69208 16.0107 6.51045 15.7921 7.13061 15.2888C7.9052 14.7196 8.28215 13.8884 8.28215 12.8604C8.28215 12.0293 8.01586 11.3508 7.50757 10.8703C6.97618 10.3671 6.24536 10.0176 5.42578 9.77618L3.89848 9.29585C2.70316 8.92351 1.92736 8.57401 1.37408 8.00472C0.753918 7.34897 0.466943 6.49625 0.466943 5.53305C0.466943 3.10581 2.41497 1.53128 5.07192 1.53128C6.6661 1.53128 8.01707 1.99127 9.25736 2.82237L8.70292 3.71952C7.44069 2.91004 6.48856 2.56055 5.13759 2.56055C3.18956 2.56055 1.8167 3.5658 1.8167 5.29405C1.8167 5.99303 1.97235 6.62716 2.45875 7.08715C2.87948 7.5027 3.56531 7.8522 4.47366 8.11521L6.13471 8.6401C7.26315 8.99076 8.06085 9.38351 8.68104 10.062C9.27924 10.7178 9.67809 11.681 9.67809 12.6863C9.67809 14.0866 9.01418 15.3333 7.83954 16.1416C6.95307 16.7324 5.8684 17.0387 4.54054 17.0387C2.81139 17.0399 1.37286 16.6243 0 15.7488Z" fill="black"/>
<path d="M13.5499 16.6892C12.9516 16.3385 12.6865 15.6828 12.6865 14.6775V6.8049H11.2468V5.90775H12.6865C12.6865 4.79321 12.819 3.3496 12.8641 3.10819L14.1481 2.84637C14.0825 3.06496 13.9049 4.46533 13.9049 5.90775H16.6288L16.2518 6.8049H13.8599V14.3725C13.8599 15.5747 14.2369 16.1656 15.3435 16.1656C15.8518 16.1656 16.185 16.0779 16.4938 15.9253L16.6713 16.7133C16.185 16.9534 15.6523 17.0843 14.9447 17.0843C14.3245 17.0832 13.9038 16.9078 13.5499 16.6892Z" fill="black"/>
<path d="M19.062 8.20412C19.062 6.7605 18.7738 6.14798 18.7069 6.01707L19.9022 5.71082C19.9691 5.82011 20.2792 6.43262 20.2342 7.54836C20.5442 7.08837 20.965 6.65121 21.4295 6.32333C22.0716 5.84172 22.6917 5.64597 23.3119 5.64597C23.5988 5.64597 23.887 5.73363 23.9102 5.75526L23.4226 7.02352C23.3119 6.98028 23.1125 6.93585 22.9349 6.93585C22.2491 6.93585 21.584 7.19767 21.0088 7.76695C20.4324 8.33626 20.2549 8.72892 20.2549 9.60451V16.7998H19.0596V8.20412H19.062Z" fill="black"/>
<path fill-rule="evenodd" clip-rule="evenodd" d="M24.861 11.3087C24.861 12.9493 25.2149 14.2608 25.8789 15.224C26.5428 16.2521 27.7393 17.0399 29.4441 17.0399C31.1708 17.0399 32.4562 16.2088 33.1419 15.0054C33.6734 14.1094 33.9835 12.9493 33.9835 11.4624C33.9835 9.73418 33.6515 8.46593 33.0094 7.50391C32.3674 6.5419 31.2171 5.64474 29.4004 5.64474C27.8512 5.64474 26.6984 6.34374 26.0126 7.24089C25.2818 8.20289 24.861 9.62493 24.861 11.3087ZM32.6337 11.5501C32.6337 12.8172 32.4562 13.6267 32.1011 14.3929C31.7023 15.3333 30.7951 16.0551 29.4673 16.0563C28.2707 16.0563 27.3417 15.4209 26.9209 14.7436C26.4553 14.0002 26.1682 12.6874 26.1682 11.1358C26.1682 9.77859 26.4114 8.72893 26.8322 7.98551C27.231 7.2637 28.1612 6.62957 29.3785 6.62957C30.5519 6.62957 31.5491 7.24089 31.9917 8.11642C32.4111 8.90309 32.6337 9.99601 32.6337 11.5501Z" fill="black"/>
<path d="M37.1487 8.18241C37.1487 6.73879 36.8386 6.12748 36.7936 5.99537L37.9671 5.73235C38.0121 5.82002 38.3222 6.51901 38.3222 7.39454C39.031 6.49739 40.3589 5.66629 41.5555 5.66629C42.8614 5.66629 43.8135 6.45416 44.1468 7.59151C45.077 6.45416 46.4267 5.66629 47.6233 5.66629C49.3062 5.66629 50.3459 6.84688 50.3459 8.59674V16.7984H49.1068V8.70607C49.1068 7.50383 48.5742 6.73759 47.3351 6.73759C46.2942 6.73759 45.3202 7.41617 44.2793 8.59557C44.2793 8.66157 44.2793 16.7972 44.2793 16.7972H43.084V8.83699C43.084 8.13677 42.9514 7.65637 42.6633 7.30567C42.3532 6.95617 41.9325 6.78082 41.2685 6.78082C40.3382 6.78082 39.3423 7.30567 38.3015 8.42141V16.7984H37.1499V8.18241H37.1487Z" fill="black"/>
<path d="M54.197 8.20405C54.197 6.78205 53.865 6.14792 53.82 6.03863L54.9935 5.73237C55.0384 5.82005 55.3473 6.49741 55.3473 7.46062C56.432 6.32326 57.6286 5.71075 58.8908 5.71075C60.0204 5.71075 60.9275 6.23559 61.3495 7.00064C61.6146 7.41619 61.7702 7.94102 61.7702 8.50908V16.7985H60.5749V9.12158C60.5749 8.09355 60.3974 7.678 60.0654 7.26245C59.7784 6.9574 59.247 6.73761 58.6257 6.73761C57.6297 6.73761 56.2569 7.41619 55.3704 8.42141V16.7985H54.197V8.20405Z" fill="black"/>
<path fill-rule="evenodd" clip-rule="evenodd" d="M66.2402 7.13274C65.3549 8.1596 64.9342 9.40624 64.9342 11.2654C64.9342 14.6991 66.5953 17.0171 69.6268 17.0195C71.0434 17.0195 72.2168 16.5823 73.1471 15.7957L72.6607 15.0294C71.908 15.7067 70.9789 16.013 69.8712 16.013C68.6308 16.013 67.635 15.5326 67.0367 14.6571C66.616 14.0446 66.3509 13.1474 66.3059 11.9884C66.284 11.7915 66.3059 11.3759 66.3059 11.3759H73.3915V11.1357C73.3915 8.68565 72.9708 7.65878 72.1293 6.78324C71.4654 6.12749 70.5352 5.66751 69.3617 5.66751C68.0119 5.66751 66.9929 6.2584 66.2402 7.13274ZM71.5322 7.76687C71.8873 8.33499 72.1086 9.16607 72.1086 10.4787V10.48H66.3071C66.4165 7.89899 67.635 6.60789 69.296 6.60789C70.3138 6.60789 71.1115 7.0895 71.5322 7.76687Z" fill="black"/>
<path d="M77.3119 16.6892C76.7136 16.3385 76.4486 15.6828 76.4486 14.6775V6.8049H75.0088V5.90775H76.4486C76.4486 4.79321 76.5811 3.3496 76.6261 3.10819L77.9102 2.84637C77.8433 3.06496 77.667 4.46533 77.667 5.90775H80.3908L80.0138 6.8049H77.6232V14.3725C77.6232 15.5747 77.999 16.1656 79.1067 16.1656C79.615 16.1656 79.9482 16.0779 80.2583 15.9253L80.4358 16.7133C79.9494 16.9534 79.418 17.0843 78.7091 17.0843C78.0865 17.0832 77.6657 16.9078 77.3119 16.6892Z" fill="black"/>
<path d="M81.6287 15.881L87.8951 6.84819H82.0932V5.90781H89.1354V6.89263L83.0672 15.881H89.2675L88.6911 16.7998H81.6275V15.881H81.6287Z" fill="black"/>
<path fill-rule="evenodd" clip-rule="evenodd" d="M40.4696 22.1022H43.0597C45.5622 22.1022 46.3587 22.2775 47.0895 22.627C48.3736 23.2179 49.1931 24.3985 49.1931 25.8205C49.1931 27.3722 48.1742 28.6417 46.2261 29.1233C47.2452 29.277 47.9091 29.5604 48.4405 29.9543C49.4145 30.6545 49.8802 31.8352 49.8802 32.9941C49.8802 34.6347 48.9718 36.0771 47.4883 36.6476C46.67 36.9527 46.1155 37.1063 43.8574 37.1063H40.4696V22.1022ZM44.4776 28.7065C45.5185 28.7065 46.293 28.5095 46.8476 28.1156C47.3789 27.6784 47.7997 26.9794 47.7997 25.973C47.7997 24.814 47.2233 23.9385 46.2942 23.5458C45.8297 23.3056 45.1645 23.1518 44.1687 23.1518H41.688V28.7065H44.4776ZM47.1126 35.5967C46.5362 35.9246 45.8954 36.0771 44.655 36.0771H41.688V29.7574H44.4776C45.5185 29.7574 46.293 29.9111 46.8476 30.1729C47.9103 30.5657 48.5524 31.6814 48.5524 32.9064C48.5524 34.0438 48.1754 35.0503 47.1126 35.5967Z" fill="black"/>
<path fill-rule="evenodd" clip-rule="evenodd" d="M53.4224 27.4382C52.5372 28.4675 52.1165 29.7129 52.1165 31.5721C52.1165 35.0058 53.7762 37.3237 56.8101 37.3237C58.228 37.3237 59.4002 36.8866 60.3305 36.0987L59.8441 35.3337C59.0914 36.011 58.1612 36.3173 57.0534 36.3173C55.8131 36.3173 54.8171 35.8369 54.2188 34.9613C53.7981 34.3488 53.5331 33.4529 53.488 32.2939C53.4662 32.0969 53.488 31.6814 53.488 31.6814H60.5737V31.4412C60.5737 28.9912 60.1529 27.9642 59.3115 27.0887C58.6476 26.4317 57.7173 25.973 56.5439 25.973C55.1941 25.973 54.1751 26.5639 53.4224 27.4382ZM58.7132 28.0723C59.0683 28.6417 59.2896 29.4727 59.2896 30.7842H53.488C53.5987 28.2032 54.816 26.9134 56.477 26.9134C57.496 26.9134 58.2925 27.395 58.7132 28.0723Z" fill="black"/>
<path d="M63.5626 28.5096C63.5626 27.0659 63.2744 26.4534 63.2075 26.3225L64.4028 26.0163C64.4697 26.1256 64.7798 26.7381 64.7349 27.8538C65.0449 27.395 65.4657 26.9567 65.9302 26.6288C66.5722 26.1472 67.1923 25.9503 67.8125 25.9503C68.0994 25.9503 68.3889 26.0379 68.4108 26.0595L67.9232 27.3278C67.8125 27.2833 67.6131 27.2401 67.4355 27.2401C66.7485 27.2401 66.0846 27.5019 65.5094 28.0712C64.9343 28.6405 64.7567 29.0332 64.7567 29.9088V37.104H63.5613V28.5096H63.5626Z" fill="black"/>
<path d="M70.6908 36.8866C70.3807 36.6236 70.2263 36.1864 70.2263 35.4429V23.6334C70.2263 22.2558 70.0038 21.5341 69.96 21.4032L71.1553 21.1833C71.1991 21.2927 71.4423 22.0805 71.4423 23.6767V35.1812C71.4423 36.0987 71.6198 36.3617 72.1281 36.3617C72.24 36.3617 72.3944 36.3172 72.4382 36.2957L72.7033 37.0835C72.3495 37.2361 72.15 37.2805 71.7949 37.2805C71.3341 37.2805 70.9802 37.17 70.6908 36.8866Z" fill="black"/>
<path fill-rule="evenodd" clip-rule="evenodd" d="M76.0278 21.8175C75.4952 21.8175 75.0526 22.2547 75.0526 22.7795C75.0526 23.3043 75.4964 23.7428 76.0278 23.7416C76.5592 23.7416 77.0018 23.3043 77.0018 22.7795C77.0018 22.2331 76.5592 21.8175 76.0278 21.8175ZM76.6261 26.0163L75.3858 26.2133V37.104H76.6261V26.0163Z" fill="black"/>
<path d="M80.5209 28.5095C80.5209 27.0875 80.1889 26.4534 80.1439 26.3441L81.3173 26.0378C81.3612 26.1255 81.6713 26.8041 81.6713 27.7661C82.7571 26.6287 83.9525 26.0162 85.215 26.0162C86.3442 26.0162 87.2513 26.5411 87.6721 27.3073C87.9388 27.7228 88.0928 28.2477 88.0928 28.8157V37.1039H86.8979V29.4271C86.8979 28.4002 86.7204 27.9835 86.388 27.5679C86.1011 27.2617 85.5684 27.0431 84.9483 27.0431C83.9525 27.0431 82.5796 27.7217 81.6931 28.7269V37.1027H80.5209V28.5095Z" fill="black"/>
<path fill-rule="evenodd" clip-rule="evenodd" d="M117.653 0C106.485 0 97.4305 8.94275 97.4305 19.974C97.4305 31.0052 106.485 39.948 117.653 39.948C128.821 39.948 137.875 31.0052 137.875 19.974C137.875 8.94275 128.823 0 117.653 0ZM117.653 38.7253C107.167 38.7253 98.6675 30.3302 98.6675 19.974C98.6675 9.61767 107.167 1.22142 117.653 1.22142C128.138 1.22142 136.64 9.6165 136.64 19.974C136.64 30.3302 128.138 38.7253 117.653 38.7253ZM113.287 21.114C115.945 20.4691 118.87 21.172 120.947 23.2227C124.105 26.3429 124.105 31.404 120.947 34.523C119.223 36.2261 116.912 36.9922 114.656 36.8362C115.633 37.0043 116.63 37.1087 117.655 37.1087C127.236 37.1087 135.003 29.4367 135.003 19.974C135.003 18.9759 134.898 18.0032 134.733 17.0507C134.88 19.2654 134.102 21.5293 132.388 23.2227C129.229 26.3442 124.105 26.3442 120.947 23.2227C118.873 21.1747 118.16 18.2918 118.808 15.6692C118.84 15.5594 118.869 15.4491 118.897 15.3383C119.264 14.0875 119.946 12.9077 120.944 11.9212C124.102 8.79983 129.226 8.79983 132.386 11.9212C133.012 12.5409 133.511 13.2399 133.889 13.9822C131.429 7.47628 125.098 2.83678 117.653 2.83678C113.478 2.83678 109.649 4.29481 106.656 6.72085C109.79 4.72237 114.014 5.07547 116.759 7.78614C118.832 9.83367 119.545 12.7165 118.897 15.3383C118.864 15.4481 118.835 15.5584 118.808 15.6692C118.44 16.9204 117.757 18.1003 116.759 19.0864C115.758 20.076 114.559 20.7518 113.287 21.114ZM113.287 21.114C113.183 21.1393 113.078 21.1667 112.975 21.1962C113.079 21.1708 113.184 21.1435 113.287 21.114ZM112.975 21.1962C111.704 21.5582 110.505 22.2337 109.504 23.2227C106.344 26.3442 106.344 31.404 109.504 34.523C110.144 35.1547 110.866 35.652 111.634 36.0279C105.023 33.6078 100.304 27.3446 100.304 19.974C100.304 15.8449 101.783 12.0582 104.246 9.09883C102.216 12.1951 102.57 16.3733 105.318 19.0864C107.393 21.1377 110.318 21.841 112.975 21.1962ZM106.79 17.6332C104.443 15.3165 104.443 11.5573 106.79 9.243C109.136 6.92382 112.942 6.92382 115.287 9.243C117.633 11.5573 117.633 15.3188 115.287 17.6332C112.942 19.9536 109.136 19.9536 106.79 17.6332ZM119.503 33.0974C117.141 35.4322 113.309 35.4322 110.946 33.0974C108.586 30.7651 108.586 26.9807 110.946 24.6495C113.309 22.3147 117.141 22.3147 119.503 24.6495C121.863 26.9795 121.863 30.7662 119.503 33.0974ZM130.936 21.7887C133.296 19.4612 133.296 15.6827 130.936 13.3552C128.577 11.0252 124.754 11.0252 122.398 13.3552C120.038 15.6827 120.038 19.4587 122.398 21.7887C124.755 24.1175 128.578 24.1175 130.936 21.7887Z" fill="url(#paint0_linear_128_128)"/>
</g>
<defs>
<linearGradient id="paint0_linear_128_128" x1="117.653" y1="48.2213" x2="145.899" y2="19.626" gradientUnits="userSpaceOnUse">
<stop offset="0.3" stop-color="#135BA6"/>
<stop offset="1" stop-color="#00ACE0"/>
</linearGradient>
<clipPath id="clip0_128_128">
<rect width="138" height="40" fill="white"/>
</clipPath>
</defs>
</svg>
