<svg   width="157.0528" height="40.927921" viewBox="0 0 96 27" preserveAspectRatio="xMidYMid meet" fill="none" xmlns="http://www.w3.org/2000/svg">
<path d="M54.1978 11.2617H52.3018C51.8888 11.2617 51.554 11.6033 51.554 12.0247V25.52C51.554 25.9414 51.8888 26.283 52.3018 26.283H54.1978C54.6108 26.283 54.9456 25.9414 54.9456 25.52V12.0247C54.9456 11.6033 54.6108 11.2617 54.1978 11.2617Z" fill="#14281E"></path>
<path d="M70.0176 11.2617H68.1216C67.7086 11.2617 67.3738 11.6033 67.3738 12.0247V25.52C67.3738 25.9414 67.7086 26.283 68.1216 26.283H70.0176C70.4306 26.283 70.7655 25.9414 70.7655 25.52V12.0247C70.7655 11.6033 70.4306 11.2617 70.0176 11.2617Z" fill="#14281E"></path>
<path d="M44.1428 15.9395H26.4269C26.0141 15.9395 25.6791 16.2813 25.6791 16.7025V25.5187C25.6791 25.9399 26.0141 26.2817 26.4269 26.2817H28.3229C28.7357 26.2817 29.0708 25.9399 29.0708 25.5187V19.6242C29.0708 19.4998 29.1696 19.3999 29.2906 19.3999H41.2791C41.401 19.3999 41.4989 19.5008 41.4989 19.6242V25.5187C41.4989 25.9399 41.834 26.2817 42.2468 26.2817H44.1428C44.5556 26.2817 44.8906 25.9399 44.8906 25.5187V16.7025C44.8906 16.2813 44.5556 15.9395 44.1428 15.9395Z" fill="#14281E"></path>
<path d="M88.0454 1.11426H84.742C80.3491 1.11426 76.7875 4.74811 76.7875 9.2302V18.1669C76.7875 22.649 80.3491 26.2829 84.742 26.2829H88.0454C92.4384 26.2829 96 22.649 96 18.1669V9.2302C96 4.74811 92.4384 1.11426 88.0454 1.11426ZM88.0464 22.8214H84.743C82.223 22.8214 80.1801 20.7371 80.1801 18.166V9.2302C80.1801 6.65907 82.223 4.57475 84.743 4.57475H88.0464C90.5664 4.57475 92.6092 6.65907 92.6092 9.2302V18.166C92.6092 20.7371 90.5664 22.8214 88.0464 22.8214Z" fill="#14281E"></path>
<path d="M70.7712 1.89192V2.75582C70.7712 4.36706 70.1443 5.91169 69.0278 7.05082L63.816 12.3684C62.3501 13.8641 59.9721 13.865 58.5062 12.3684L53.2953 7.05278C52.1789 5.91365 51.551 4.36804 51.551 2.7568V1.89094C51.551 1.46977 51.8861 1.12793 52.2989 1.12793H54.1949C54.6077 1.12793 54.9427 1.46977 54.9427 1.89094V2.75876C54.9427 3.45027 55.2115 4.11239 55.6905 4.60115L60.5885 9.59844C60.9043 9.92069 61.416 9.92069 61.7318 9.59844L66.6297 4.59919C67.1088 4.11044 67.3776 3.44733 67.3776 2.7568V1.89094C67.3776 1.46977 67.7126 1.12793 68.1254 1.12793H70.0214C70.4342 1.12793 70.7693 1.46977 70.7693 1.89094L70.7712 1.89192Z" fill="#14281E"></path>
<path d="M25.6761 12.4755V11.6116C25.6761 10.0004 26.303 8.45577 27.4195 7.31664L32.6313 1.99907C34.0973 0.503405 36.4752 0.502426 37.9411 1.99907L43.152 7.31468C44.2685 8.45381 44.8963 9.99943 44.8963 11.6107V12.4765C44.8963 12.8977 44.5613 13.2395 44.1485 13.2395H42.2525C41.8397 13.2395 41.5046 12.8977 41.5046 12.4765V11.6087C41.5046 10.9172 41.2358 10.2551 40.7568 9.76631L35.8589 4.76902C35.543 4.44678 35.0313 4.44678 34.7155 4.76902L29.8176 9.76827C29.3385 10.257 29.0697 10.9201 29.0697 11.6107V12.4765C29.0697 12.8977 28.7347 13.2395 28.3219 13.2395H26.4259C26.0131 13.2395 25.6781 12.8977 25.6781 12.4765L25.6761 12.4755Z" fill="#14281E"></path>
<path d="M19.2202 1.89485V15.8749C19.2202 17.4861 18.5933 19.0308 17.4768 20.1699L12.265 25.4875C10.799 26.9832 8.42112 26.9841 6.9552 25.4875L1.74432 20.1719C0.62784 19.0337 0 17.4881 0 15.8769V1.89485C0 1.47367 0.33504 1.13184 0.74784 1.13184H2.64384C3.05664 1.13184 3.39168 1.47367 3.39168 1.89485V15.8788C3.39168 16.5703 3.66048 17.2325 4.13952 17.7212L9.03744 22.7185C9.35328 23.0408 9.86496 23.0408 10.1808 22.7185L15.0787 17.7193C15.5578 17.2305 15.8266 16.5674 15.8266 15.8769V1.89485C15.8266 1.47367 16.1616 1.13184 16.5744 1.13184H18.4704C18.8832 1.13184 19.2182 1.47367 19.2182 1.89485H19.2202Z" fill="#14281E"></path>
</svg>