<svg width="60" height="60" viewBox="0 0 60 60" fill="none" xmlns="http://www.w3.org/2000/svg">
<path d="M50.5881 10.1658H43.1511C42.4367 10.1658 41.8511 9.58027 41.8511 8.86584V1.42879C41.8511 0.714361 42.4367 0.128784 43.1511 0.128784C43.8655 0.128784 44.4511 0.714361 44.4511 1.42879V7.5658H50.5881C51.3026 7.5658 51.8882 8.15142 51.8882 8.86584C52.0053 9.45143 51.4197 10.1658 50.5881 10.1658Z" fill="#4392C7"/>
<path d="M30.1624 8.86591H8.55394C7.85123 8.86591 7.25391 8.2803 7.25391 7.56587C7.25391 6.85145 7.83952 6.26587 8.55394 6.26587H30.0452C30.7479 6.26587 31.3453 6.85145 31.3453 7.56587C31.4624 8.2803 30.8768 8.86591 30.1624 8.86591Z" fill="#4392C7"/>
<path d="M41.031 15.1199H8.55394C7.85123 15.1199 7.25391 14.5344 7.25391 13.8199C7.25391 13.1055 7.83952 12.5199 8.55394 12.5199H41.031C41.7337 12.5199 42.331 13.1055 42.331 13.8199C42.331 14.5344 41.7454 15.1199 41.031 15.1199Z" fill="#4392C7"/>
<path d="M41.031 18.903H8.55394C7.85123 18.903 7.25391 18.3174 7.25391 17.603C7.25391 16.8886 7.83952 16.303 8.55394 16.303H41.031C41.7337 16.303 42.331 16.8886 42.331 17.603C42.331 18.1886 41.7454 18.903 41.031 18.903Z" fill="#4392C7"/>
<path d="M30.1624 22.5572H8.55394C7.85123 22.5572 7.25391 21.9716 7.25391 21.2572C7.25391 20.5427 7.83952 19.9572 8.55394 19.9572H30.0452C30.7479 19.9572 31.3453 20.5427 31.3453 21.2572C31.4624 21.9716 30.8768 22.5572 30.1624 22.5572Z" fill="#4392C7"/>
<path d="M24.8452 26.34H8.55394C7.85123 26.34 7.25391 25.7544 7.25391 25.04C7.25391 24.3256 7.83952 23.74 8.55394 23.74H24.7281C25.4425 23.74 26.0281 24.3256 26.0281 25.04C26.1452 25.7427 25.5596 26.34 24.8452 26.34Z" fill="#4392C7"/>
<path d="M37.248 30.1112H13.508C12.8053 30.1112 12.208 29.5257 12.208 28.8112C12.208 28.0968 12.7936 27.5112 13.508 27.5112H37.248C37.9507 27.5112 38.548 28.0968 38.548 28.8112C38.6651 29.5139 38.0796 30.1112 37.248 30.1112Z" fill="#4392C7"/>
<path d="M37.2481 33.777H8.55394C7.85123 33.777 7.25391 33.1915 7.25391 32.477C7.25391 31.7626 7.83952 31.177 8.55394 31.177H37.2481C37.9508 31.177 38.5481 31.7626 38.5481 32.477C38.6652 33.1915 38.0796 33.777 37.2481 33.777Z" fill="#4392C7"/>
<path d="M54.957 30.5915C54.7228 30.5915 54.3714 30.4744 54.1255 30.3573L50.1083 27.4059C49.5227 26.9374 49.4056 26.1059 49.874 25.5203L53.5281 20.5661C53.7624 20.3319 53.9966 20.0977 54.3597 20.0977C54.7227 20.0977 55.0624 20.0977 55.3083 20.3319L59.3255 23.2833C59.5597 23.5175 59.794 23.7518 59.794 24.1148C59.794 24.4779 59.794 24.8175 59.5598 25.0635L55.7768 30.0176C55.5426 30.2519 55.3083 30.4861 54.9453 30.4861C55.0233 30.5642 55.0233 30.6032 54.9453 30.6032L54.957 30.5915ZM52.8371 25.9887L54.7227 27.4059L56.8426 24.5716L54.957 23.1545L52.8371 25.9887Z" fill="#4392C7"/>
<path d="M51.0683 59.9883H2.30004C1.59732 59.9883 1 59.4027 1 58.6883V1.30004C1 0.597325 1.58561 0 2.30004 0H43.7484C44.0997 0 44.4628 0.11714 44.697 0.351378L52.017 7.55418C52.2512 7.78842 52.3684 8.13977 52.3684 8.50284V26.3283C52.3684 26.7968 52.1341 27.1482 51.7828 27.3941L37.9627 44.7511L40.797 46.8827L50.0025 33.7771C50.3539 33.3086 50.9512 33.0627 51.5368 33.3086C52.1224 33.4257 52.4854 34.0113 52.4854 34.6086V58.8171C52.3683 59.4027 51.771 60 51.0683 60V59.9883ZM3.71717 57.3882H49.7683V38.7312L42.097 49.471C41.8628 49.7053 41.6285 49.9395 41.2655 50.0566C40.9141 50.0566 40.5628 50.0566 40.1997 49.8224L35.2455 46.0394C35.0113 45.8052 34.7771 45.4538 34.7771 45.0908C34.7771 44.7277 34.7771 44.388 35.0113 44.1421L49.7683 25.7193V8.9479L43.2799 2.57663H3.71717V57.3648V57.3882Z" fill="#4392C7"/>
<path d="M33.5825 55.0342C33.3483 55.0342 32.9969 54.9171 32.751 54.8C32.2825 54.4486 32.0365 53.8513 32.2825 53.3829L34.7654 44.6458C34.7654 44.5287 34.8825 44.2944 34.9997 44.1773L49.9909 25.4032C50.4594 24.8176 51.2909 24.6888 51.8765 25.1689L55.7765 28.1203C56.3621 28.5888 56.4793 29.4203 56.0108 30.0059L52.1107 35.3231L42.0736 49.4945C41.9565 49.6116 41.8394 49.7287 41.7223 49.8459L34.2852 54.9288C34.051 55.0459 33.8167 55.0459 33.5708 55.0459L33.5825 55.0342ZM37.2483 45.5827L35.8312 50.6657L40.0826 47.8314L50.0026 33.7771L53.1882 29.5257L51.1855 28.1086L37.2483 45.5827Z" fill="#4392C7"/>
<path d="M33.5826 55.0343C33.3483 55.0343 33.1141 54.9171 32.8798 54.8C32.0483 54.2144 29.46 52.9144 27.9257 53.6171C24.9743 55.1514 19.7742 52.6685 19.1886 52.3171C18.4742 51.9657 18.24 51.1342 18.603 50.5486C18.9544 49.8459 19.786 49.5999 20.3715 49.963C22.14 50.9117 25.3257 51.8486 26.6257 51.263C29.6942 49.7288 33.7114 52.3288 34.1799 52.6802C34.7655 53.0315 34.9997 53.9802 34.5312 54.5658C34.4141 54.9171 33.9456 55.0343 33.5826 55.0343Z" fill="#4392C7"/>
</svg>
