<svg width="60" height="60" viewBox="0 0 60 60" fill="none" xmlns="http://www.w3.org/2000/svg">
<path d="M55.3739 60H4.27299C3.58492 60 3 59.4266 3 58.727C3 58.0275 3.57345 57.4541 4.27299 57.4541H55.3739C56.062 57.4541 56.6468 58.0275 56.6468 58.727C56.6468 59.4266 56.0734 60 55.3739 60Z" fill="#4392C7"/>
<path d="M35.259 43.922H24.3875C23.9288 43.922 23.4586 43.6926 23.2292 43.3486C22.9999 43.0046 22.9999 42.5344 23.1146 42.0757C23.9288 40.4587 24.5022 39.0711 24.7315 37.7982C24.9609 36.6399 25.0756 35.5963 24.9609 34.6789C22.415 33.75 20.2247 32.2477 18.6077 30.172C16.8761 28.0849 15.8324 25.6651 15.4884 23.1193C13.9861 22.5459 12.7132 21.5023 11.7843 20.2293C10.5114 18.6124 9.93799 16.7546 9.93799 14.7936V5.77983C9.93799 4.85093 10.626 4.16285 11.5549 4.16285H15.259V1.61698C15.259 0.688077 15.9586 0 16.876 0H42.5412C43.4701 0 44.1581 0.699545 44.1581 1.61698V4.16285H47.8623C48.7912 4.16285 49.4792 4.86239 49.4792 5.77983V14.7936C49.4792 16.7546 48.7797 18.727 47.6329 20.2293C46.704 21.5023 45.431 22.4312 43.9288 23.1193C43.5847 25.6651 42.4265 28.0849 40.8095 30.172C39.0779 32.2477 36.8761 33.75 34.4449 34.6789C34.3302 35.7225 34.3302 36.7546 34.6742 37.9128C34.9036 39.1858 35.4884 40.5734 36.2912 42.0757C36.5205 42.4197 36.5205 43.0046 36.2912 43.3486C36.0618 43.6926 35.7178 43.922 35.2476 43.922H35.259ZM26.4632 41.3876H33.2866C32.8279 40.344 32.5871 39.4266 32.3577 38.4977C32.0137 36.7661 31.8989 35.0344 32.243 33.406C32.3577 32.9472 32.7017 32.5917 33.1719 32.3624C35.4884 31.6743 37.5641 30.4014 39.0664 28.4289C40.5687 26.5826 41.4976 24.3807 41.7269 21.9495C41.7269 21.3761 42.1857 21.0206 42.6558 20.7913C43.9288 20.4473 45.087 19.633 45.8898 18.4748C46.704 17.3165 47.1627 16.0436 47.1627 14.5413V6.55963H43.1146C42.4265 6.55963 41.8417 5.98622 41.8417 5.28668V2.39678H17.9081V5.28668C17.9081 5.97475 17.3347 6.55963 16.6352 6.55963H12.5871V14.5413C12.5871 15.9289 13.0458 17.3165 13.86 18.4748C14.6742 19.5183 15.821 20.3211 17.0939 20.7913C17.5527 20.906 17.9082 21.3647 18.0228 21.9495C18.2522 24.266 19.1811 26.5711 20.6834 28.4289C22.1857 30.2752 24.2728 31.6628 26.5778 32.3624C27.0366 32.4771 27.3921 32.8211 27.5068 33.2913C27.8508 34.9083 27.8508 36.5252 27.3921 38.2569C27.1627 39.3004 26.8187 40.2179 26.4632 41.3761V41.3876Z" fill="#4392C7"/>
<path d="M43.814 56.2958H15.6031C14.9035 56.2958 14.3301 55.7225 14.3301 55.0229V42.6491C14.3301 41.9495 14.9035 41.3761 15.6031 41.3761H43.6994C44.3989 41.3761 44.9723 41.9495 44.9723 42.6491V55.0229C45.087 55.711 44.5136 56.2958 43.814 56.2958ZM16.876 53.6353H42.4264V43.922H16.876V53.6353Z" fill="#4392C7"/>
<path d="M48.6655 60H10.7412C10.0416 60 9.46826 59.4266 9.46826 58.7271V55.023C9.46826 54.3234 10.0416 53.75 10.7412 53.75H48.6655C49.3536 53.75 49.9385 54.3234 49.9385 55.023V58.7271C49.9385 59.4266 49.365 60 48.6655 60ZM12.0142 57.3395H47.2779V56.2959H12.0142V57.3395Z" fill="#4392C7"/>
<path d="M25.8901 24.9655C25.6607 24.9655 25.3167 24.8509 25.0759 24.7362C24.6171 24.3922 24.3764 23.8073 24.6172 23.2339L25.7754 19.5298L22.6561 17.2133C22.1974 16.8692 21.9566 16.2843 22.1975 15.7109C22.4268 15.1376 22.8855 14.782 23.4704 14.782H27.2892L28.4474 11.0779C28.6768 10.5045 29.1355 10.149 29.7204 10.149C30.2938 10.149 30.764 10.4931 30.9933 11.0779L32.1516 14.782H35.9703C36.5437 14.782 37.014 15.1261 37.2433 15.7109C37.4727 16.2843 37.2433 16.8692 36.7846 17.2133L33.6654 19.5298L34.8236 23.2339C35.0529 23.8073 34.8236 24.3922 34.3649 24.7362C33.9062 25.0802 33.3213 25.0802 32.8626 24.7362L29.7433 22.4197L26.6241 24.7362C26.5094 24.9656 26.28 24.9655 25.9245 24.9655H25.8901ZM29.8236 19.5298C30.0529 19.5298 30.397 19.6445 30.6378 19.7591L31.3373 20.2179L31.108 19.4036C30.8786 18.8302 31.108 18.2454 31.5667 17.9013L32.1401 17.4426H31.3373C30.7639 17.4426 30.2938 17.0986 30.0644 16.5137L29.8351 15.6995L29.6057 16.399C29.3763 16.9724 28.9062 17.3279 28.3328 17.3279H27.5185L28.0919 17.7867C28.5506 18.1307 28.78 18.7156 28.5507 19.289L28.3213 19.977L28.8947 19.5183C29.2387 19.633 29.5942 19.5183 29.8236 19.5183V19.5298Z" fill="#4392C7"/>
<path d="M43 15.711C42.3119 15.711 41.7271 15.1376 41.7271 14.4381V5.42432C41.7271 4.72478 42.3004 4.15137 43 4.15137C43.6995 4.15137 44.273 4.72478 44.273 5.42432V14.4381C44.3876 15.1261 43.8142 15.711 43 15.711Z" fill="#4392C7"/>
<path d="M16.6469 15.711C15.9589 15.711 15.374 15.1376 15.374 14.4381V5.42432C15.374 4.72478 15.9474 4.15137 16.6469 4.15137C17.3465 4.15137 17.9199 4.72478 17.9199 5.42432V14.4381C17.9199 15.1261 17.3465 15.711 16.6469 15.711Z" fill="#4392C7"/>
<path d="M31.2108 49.2431H15.6031C14.9035 49.2431 14.3301 48.6697 14.3301 47.9702C14.3301 47.2706 14.9035 46.6973 15.6031 46.6973H31.0961C31.7957 46.6973 32.3691 47.2706 32.3691 47.9702C32.3691 48.6697 31.9104 49.2431 31.2108 49.2431Z" fill="#4392C7"/>
<path d="M18.0347 34.2086H15.6035V36.6398H18.0347V34.2086Z" fill="#4392C7"/>
<path d="M14.4449 34.2086H12.0137V36.6398H14.4449V34.2086Z" fill="#4392C7"/>
<path d="M10.7525 34.2086H8.32129V36.6398H10.7525V34.2086Z" fill="#4392C7"/>
<path d="M52.2544 34.2086H49.8232V36.6398H52.2544V34.2086Z" fill="#4392C7"/>
<path d="M48.6763 34.2086H46.2451V36.6398H48.6763V34.2086Z" fill="#4392C7"/>
<path d="M44.9722 34.2086H42.541V36.6398H44.9722V34.2086Z" fill="#4392C7"/>
</svg>
