<svg width="60" height="60" viewBox="0 0 60 60" fill="none" xmlns="http://www.w3.org/2000/svg">
<path d="M54.4634 60H5.31333C4.60341 60 4 59.4084 4 58.6867V40.3116C4 39.72 4.47325 39.1166 5.07668 38.9983L20.8251 35.6616C21.4167 35.5433 22.0201 35.7799 22.2567 36.2532L26.4334 43.5299L29.5335 41.625C30.0067 41.3883 30.6101 41.3883 30.9651 41.625L33.9468 43.6482L39.9101 36.2532C40.265 35.7799 40.8685 35.6616 41.3418 35.7799L54.9367 40.3116C55.5283 40.5482 55.8951 41.0215 55.8951 41.625V58.45C55.7768 59.4084 55.1733 60 54.4634 60ZM6.62667 57.2668H53.1501V42.7135L41.3418 38.7734L35.2601 46.4051C34.7868 46.9967 34.065 47.115 33.4735 46.6417L30.1368 44.5001L26.5636 46.7719C26.2087 47.0085 25.8537 47.0085 25.4869 46.8902C25.1201 46.7718 24.8953 46.5352 24.6468 46.2986L20.3518 38.667L6.63851 41.412V57.2787L6.62667 57.2668Z" fill="#4392C7"/>
<path d="M44.4415 60H15.3349C14.6131 60 14.0215 59.4084 14.0215 58.6866V48.9016C14.0215 48.1917 14.6131 47.5883 15.3349 47.5883C16.0566 47.5883 16.6482 48.1798 16.6482 48.9016V57.3733H43.0099V48.9016C43.0099 48.1917 43.6015 47.5883 44.3233 47.5883C45.045 47.5883 45.6366 48.1798 45.6366 48.9016V58.6866C45.7549 59.3966 45.1633 60 44.4415 60Z" fill="#4392C7"/>
<path d="M30.3736 33.8868C26.5519 33.8868 23.2153 31.3784 20.7069 26.8468C18.802 23.3918 17.6069 18.73 17.6069 15.1568C17.6069 14.1984 17.6069 13.3701 17.8436 12.4118C17.9619 11.7018 18.6718 11.2167 19.3936 11.335C20.1035 11.4534 20.5886 12.1751 20.4703 12.885C20.3519 13.5949 20.352 14.3167 20.352 15.1568C20.352 18.3751 21.4287 22.4334 23.2153 25.5334C24.647 28.1601 27.037 31.2601 30.6103 31.2601C33.237 31.2601 35.2602 29.5918 36.4553 28.1601C39.4369 24.5869 41.2236 18.6117 40.5136 14.4469C40.3953 13.7251 40.8686 13.0152 41.5903 12.8969C42.3002 12.7785 43.0221 13.2518 43.1404 13.9736C43.9805 18.8602 41.9453 25.6636 38.4903 29.8403C35.982 32.467 33.237 33.8986 30.3736 33.8986V33.8868Z" fill="#4392C7"/>
<path d="M41.5906 15.3935C41.354 15.3935 41.1174 15.3935 40.999 15.2751L37.1773 13.2519C36.5857 13.8435 35.6274 14.2103 34.314 14.2103H21.1923C17.7374 14.2103 15.229 11.8202 15.229 8.72025V3.71531C15.229 3.00539 15.8206 2.40198 16.5423 2.40198H33.8407C35.864 2.40198 36.7041 3.83364 37.2957 4.91035L37.414 5.02868V5.38363L42.3006 8.36527C42.6556 8.60191 42.8922 9.0752 42.8922 9.56032V14.092C42.8922 14.5652 42.6556 15.0504 42.3006 15.287C42.1823 15.4053 41.9456 15.4053 41.5906 15.4053V15.3935ZM36.8105 10.2584C37.0472 10.2584 37.2838 10.2584 37.4021 10.3767L40.2655 11.8084V10.2584L35.6155 7.39508C35.3789 7.27676 35.1422 6.92179 35.0239 6.68515C35.0239 6.68515 35.0239 6.56682 34.9056 6.4485L34.7872 6.33017C34.1956 5.25346 34.0655 5.13516 33.7106 5.13516H17.8439V8.83858C17.8439 10.7435 19.5121 11.7019 21.1805 11.7019H34.3022C35.1422 11.7019 35.4972 11.347 35.7339 10.9802C35.8522 10.5069 36.3254 10.2702 36.8105 10.2702V10.2584Z" fill="#4392C7"/>
<path d="M25.8421 46.8784H25.4872C25.1322 46.7601 24.8956 46.5234 24.6471 46.2868L19.8788 37.6968C19.6422 37.2235 19.6421 36.7384 19.9971 36.2651L22.5055 32.5617C22.7422 32.2067 23.2154 31.9701 23.5822 31.9701C24.0555 31.9701 24.4223 32.2067 24.6589 32.5617L31.344 42.1101C31.5806 42.4651 31.5807 42.8319 31.5807 43.1868C31.4623 43.5418 31.344 43.9086 30.9891 44.0269L26.694 46.6536C26.3391 46.7719 26.1024 46.8902 25.8539 46.8902L25.8421 46.8784ZM22.612 37.1052L26.3154 43.6601L28.2203 42.4651L23.4521 35.6617L22.612 37.0933V37.1052Z" fill="#4392C7"/>
<path d="M34.1833 46.8784C33.9467 46.8784 33.71 46.7601 33.4615 46.6418L29.4031 44.0151C29.0482 43.7784 28.9298 43.5418 28.8115 43.0567C28.8115 42.7017 28.8115 42.3467 29.0482 41.9799L36.4432 32.4315C36.6798 32.0766 37.0348 31.9583 37.5199 31.9583C37.8749 31.9583 38.36 32.0766 38.5966 32.4315L41.8149 36.2533C42.1698 36.7265 42.2881 37.4483 41.8149 37.9216L35.1298 46.275C35.0115 46.7482 34.5382 46.8666 34.1714 46.8666L34.1833 46.8784ZM32.16 42.5834L33.9466 43.7784L39.2 37.2117L37.6501 35.425L32.16 42.5834Z" fill="#4392C7"/>
<path d="M30.4917 29.3433C29.9001 29.3433 29.2966 28.87 29.1783 28.2666C29.0599 27.5567 29.5333 26.8349 30.255 26.7166L43.7317 24.4449L40.6316 17.1682C40.395 16.4464 40.6317 15.7366 41.3416 15.3816C42.0633 15.145 42.7733 15.3816 43.1282 16.0915L46.9499 24.9182C47.0683 25.2731 47.0683 25.7582 46.9499 26.1132C46.7133 26.4681 46.3583 26.7048 45.9915 26.8231L30.7165 29.3315H30.4798L30.4917 29.3433Z" fill="#4392C7"/>
<path d="M32.1602 48.1917H29.2969V51.055H32.1602V48.1917Z" fill="#4392C7"/>
<path d="M32.1602 52.0134H29.2969V54.8767H32.1602V52.0134Z" fill="#4392C7"/>
<path d="M12.8382 32.9283C12.1283 32.9283 11.5249 32.3367 11.5249 31.615V18.9666C11.5249 18.2566 12.1165 17.6532 12.8382 17.6532C13.56 17.6532 14.1516 18.2448 14.1516 18.9666V31.615C14.27 32.3249 13.56 32.9283 12.8382 32.9283Z" fill="#4392C7"/>
<path d="M9.13511 30.42C8.42519 30.42 7.82178 29.8283 7.82178 29.1066V12.6483C7.82178 11.9265 8.41336 11.335 9.13511 11.335C9.85686 11.335 10.4485 11.9265 10.4485 12.6483V28.9883C10.4485 29.8284 9.85686 30.42 9.13511 30.42Z" fill="#4392C7"/>
<path d="M54.4632 21.5933C53.7415 21.5933 53.1499 21.0017 53.1499 20.28V7.63157C53.1499 6.92165 53.7415 6.31824 54.4632 6.31824C55.185 6.31824 55.7766 6.90982 55.7766 7.63157V20.28C55.7766 21.0017 55.185 21.5933 54.4632 21.5933Z" fill="#4392C7"/>
<path d="M50.6532 18.9667C49.9433 18.9667 49.3398 18.3751 49.3398 17.6533V1.31333C49.3398 0.603414 49.9314 0 50.6532 0C51.3749 0 51.9665 0.591582 51.9665 1.31333V17.6533C52.0848 18.3632 51.4932 18.9667 50.6532 18.9667Z" fill="#4392C7"/>
</svg>
