<svg width="60" height="60" viewBox="0 0 60 60" fill="none" xmlns="http://www.w3.org/2000/svg">
<path d="M30.0703 33.3638C29.7118 33.3638 29.4727 33.2444 29.2218 33.1249C28.9828 32.8859 28.7438 32.5274 28.7438 32.1569L27.5369 21.1989C27.5369 20.6014 27.7759 20.1115 28.2539 19.8725L36.2005 15.8932C36.6785 15.6542 37.1684 15.7737 37.6464 16.0127L43.7886 20.709C44.1471 21.0675 44.3861 21.5574 44.2666 22.0354L42.4622 30.711C42.3427 31.3085 41.8647 31.6789 41.2553 31.7984L30.1658 33.2444C30.1658 33.3639 30.0463 33.3638 30.0463 33.3638H30.0703ZM30.3092 21.7964L31.2772 30.472L40.0722 29.2651L41.5182 22.2744L36.7024 18.5341L30.3212 21.7845L30.3092 21.7964Z" fill="#4392C7"/>
<path d="M23.4379 48.4206C23.199 48.4206 22.8405 48.3011 22.5895 48.1816L16.4473 43.4853C16.0888 43.1268 15.8498 42.6369 15.9693 42.1589L17.7738 33.4833C17.8932 32.8858 18.3712 32.5154 18.8612 32.3959L29.8191 30.7109C30.1776 30.7109 30.5361 30.711 30.9066 30.9499C31.1456 31.1889 31.3846 31.5474 31.3846 31.9179L32.711 43.1268C32.8305 43.7243 32.472 44.2142 31.994 44.4532L24.0474 48.4325H23.4499L23.4379 48.4206ZM18.7417 41.8004L23.5575 45.5407L29.9386 42.4098L28.8512 33.6148L20.1757 34.9412L18.7297 41.8123L18.7417 41.8004Z" fill="#4392C7"/>
<path d="M46.2142 25.6563C45.9752 25.6563 45.6167 25.5367 45.3658 25.4172L32.7109 15.6543C32.1135 15.1763 31.9939 14.3278 32.4719 13.7303C32.9499 13.1328 33.7984 13.0134 34.3959 13.4914L47.0507 23.2543C47.6482 23.7323 47.7677 24.5808 47.2897 25.1783C46.9312 25.4173 46.5727 25.6563 46.2023 25.6563H46.2142Z" fill="#4392C7"/>
<path d="M26.569 50.9541C26.33 50.9541 25.9715 50.8346 25.7205 50.7151L13.0657 40.9521C12.4682 40.4741 12.3487 39.6257 12.8267 39.0282C13.3047 38.4307 14.1531 38.2992 14.7506 38.7892L27.4055 48.5522C28.0029 49.0302 28.1225 49.8786 27.6445 50.4761C27.4055 50.7151 27.047 50.9541 26.557 50.9541H26.569Z" fill="#4392C7"/>
<path d="M30.0701 59.988C14.6429 59.988 2 47.4527 2 31.9179C2 17.4587 12.958 5.65225 26.9392 4.08683L25.1349 2.28243C24.6569 1.80444 24.6569 0.836487 25.1349 0.358494C25.6128 -0.119498 26.5808 -0.119498 27.0588 0.358494L31.0381 4.3378C31.3966 4.6963 31.516 5.30573 31.277 5.78372C31.038 6.26171 30.5601 6.63214 30.0701 6.63214C16.0889 6.63214 4.77236 17.9606 4.77236 31.9299C4.77236 45.8992 16.1008 57.2276 30.0701 57.2276C44.0395 57.2276 55.3679 45.8992 55.3679 31.9299C55.3679 31.201 55.9654 30.6035 56.6943 30.6035C57.4232 30.6035 58.0207 31.201 58.0207 31.9299C58.1402 47.4766 45.4854 60 30.0701 60V59.988Z" fill="#4392C7"/>
<path d="M27.4172 12.0453C27.1782 12.0453 27.0587 12.0453 26.8197 11.9258C26.1027 11.5673 25.8518 10.7189 26.2222 10.1214L28.8751 4.8157C29.2336 4.09871 30.082 3.84777 30.6795 4.21821C31.3965 4.57671 31.6474 5.42515 31.277 6.02264L28.6241 11.3283C28.3851 11.8063 27.9072 12.0453 27.4172 12.0453Z" fill="#4392C7"/>
<path d="M24.7644 39.9961C24.5254 39.9961 24.1669 39.8766 23.916 39.7571C23.3185 39.2791 23.187 38.4306 23.677 37.8332L34.2765 24.4613C34.7545 23.8638 35.6029 23.7443 36.2004 24.2223C36.7979 24.7003 36.9174 25.5488 36.4394 26.1462L25.8399 39.5181C25.4814 39.8766 25.1229 39.9961 24.7525 39.9961H24.7644Z" fill="#4392C7"/>
<path d="M37.7776 35.7777H35.1248V38.4306H37.7776V35.7777Z" fill="#4392C7"/>
<path d="M37.7776 39.5061H35.1248V42.159H37.7776V39.5061Z" fill="#4392C7"/>
<path d="M37.7776 43.366H35.1248V46.0188H37.7776V43.366Z" fill="#4392C7"/>
<path d="M37.7776 47.2257H35.1248V49.8786H37.7776V47.2257Z" fill="#4392C7"/>
<path d="M22.482 15.2958H19.8291V17.9486H22.482V15.2958Z" fill="#4392C7"/>
<path d="M22.482 19.1437H19.8291V21.7965H22.482V19.1437Z" fill="#4392C7"/>
<path d="M22.482 22.8839H19.8291V25.5368H22.482V22.8839Z" fill="#4392C7"/>
<path d="M22.482 26.7437H19.8291V29.3965H22.482V26.7437Z" fill="#4392C7"/>
</svg>
